<svg width="96" height="97" viewBox="0 0 96 97" fill="none" xmlns="http://www.w3.org/2000/svg">
<path d="M49.3404 67.5898L30.0204 87.9898L26.0104 87.5598L10.6504 75.0598L11.5704 70.2698L31.2504 49.4998L49.3404 67.5898Z" fill="#004666"/>
<path d="M64.0103 52.0898V52.0998L52.0903 64.6798L34.0103 46.5998V46.5898L45.9303 34.0198H45.9403L64.0103 52.0898Z" fill="#004666"/>
<path d="M94.7504 19.6399L66.7604 49.1899L48.6904 31.1199L76.5704 1.69987C77.3904 0.809867 78.7804 0.779867 79.6404 1.63987L94.6904 16.6999C95.5004 17.4999 95.5304 18.7999 94.7504 19.6399Z" fill="#004666"/>
<path d="M4.8602 93.0598C4.3802 94.6998 5.9402 96.2098 7.5702 95.6798L30.0302 87.9898L25.3102 81.6498C25.1102 81.3798 24.8302 81.1498 24.5302 80.9998C21.2802 79.4198 19.6902 79.4898 16.4802 77.9498C16.1002 77.7698 15.7802 77.4598 15.5702 77.0998L11.5902 70.2798L4.8802 93.0698L4.8602 93.0598Z" fill="#80D7F7"/>
<path d="M91.8499 79.93L66.3299 54.41L64.0199 52.1L45.9499 34.02L43.6499 31.71L40.6799 28.73C40.2299 28.27 40.0799 27.6 40.2599 26.98C42.3099 20.1 40.6399 12.35 35.1999 6.91C31.3299 3.08 26.3299 1.11 21.2999 1.02C18.2099 0.96 16.6199 4.7 18.7999 6.89L19.3499 7.44L20.7599 8.85C24.1499 12.23 24.1499 17.72 20.7599 21.1C17.3799 24.48 11.8999 24.48 8.50991 21.1L7.09991 19.69H7.08991L6.54991 19.14C4.35991 16.96 0.619912 18.54 0.679912 21.63C0.769912 26.67 2.73991 31.67 6.57991 35.51C12.0199 40.95 19.7699 42.61 26.6499 40.56C27.2699 40.38 27.9399 40.53 28.3999 40.98L31.5299 44.12L34.0099 46.59L52.0899 64.68L54.2299 66.82L79.5899 92.19C82.9799 95.57 88.4699 95.57 91.8499 92.19C95.2299 88.8 95.2299 83.31 91.8499 79.93ZM88.3099 87.28C88.0499 88.1 87.3799 88.76 86.5699 89.02C84.2999 89.76 82.2299 87.68 82.9599 85.42C83.2299 84.6 83.8899 83.94 84.7099 83.68C86.9699 82.94 89.0399 85.02 88.3099 87.28Z" fill="#00AEEF"/>
<path d="M43.6301 31.71L45.9301 34.02L43.6201 31.71H43.6301Z" fill="#F6E329"/>
<path d="M64.0102 52.09V52.1L45.9302 34.02H45.9402L64.0102 52.09Z" fill="#F6E329"/>
</svg>
