<svg width="97" height="97" viewBox="0 0 97 97" fill="none" xmlns="http://www.w3.org/2000/svg">
<g clip-path="url(#clip0_1957_39250)">
<path d="M67.7466 14.3998C67.5566 13.8098 67.0466 13.3798 66.4266 13.2898L55.1666 11.6498L50.1266 1.44979C49.8566 0.889795 49.2866 0.539795 48.6666 0.539795C48.0466 0.539795 47.4766 0.889795 47.2066 1.44979L42.1666 11.6498L30.9066 13.2898C30.2966 13.3798 29.7766 13.8098 29.5866 14.3998C29.3966 14.9898 29.5566 15.6398 29.9966 16.0698L38.1466 24.0098L36.2266 35.2198C36.1266 35.8298 36.3766 36.4498 36.8766 36.8198C37.3766 37.1798 38.0466 37.2298 38.5966 36.9398L48.6666 31.6498L58.7366 36.9398C59.2866 37.2298 59.9566 37.1798 60.4566 36.8198C60.9566 36.4598 61.2066 35.8298 61.1066 35.2198L59.1866 24.0098L67.3366 16.0698C67.7766 15.6398 67.9366 14.9898 67.7466 14.3998Z" fill="#80D7F7"/>
<path d="M28.1163 37.5599L21.6563 32.9899L21.7563 25.0799C21.7563 24.4599 21.4163 23.8899 20.8663 23.6099C20.3163 23.3299 19.6463 23.3899 19.1463 23.7599L12.8063 28.4899L5.31631 25.9499C4.72631 25.7499 4.07631 25.8999 3.63631 26.3399C3.19631 26.7799 3.04631 27.4299 3.24631 28.0199L5.78631 35.5099L1.06631 41.8399C0.696306 42.3399 0.636306 42.9999 0.916306 43.5599C1.19631 44.1099 1.76631 44.4599 2.38631 44.4499L10.2963 44.3499L14.8663 50.8099C15.2263 51.3199 15.8463 51.5799 16.4563 51.4799C17.0663 51.3799 17.5763 50.9399 17.7563 50.3499L20.1063 42.7999L27.6563 40.4499C28.2463 40.2699 28.6863 39.7599 28.7863 39.1499C28.8863 38.5399 28.6263 37.9199 28.1163 37.5599Z" fill="#00AEEF"/>
<path d="M96.2663 41.8399L91.5363 35.4999L94.0763 28.0099C94.2763 27.4199 94.1263 26.7699 93.6863 26.3299C93.2463 25.8899 92.5963 25.7399 92.0063 25.9399L84.5163 28.4799L78.1763 23.7499C77.6763 23.3799 77.0163 23.3199 76.4563 23.5999C75.9063 23.8799 75.5563 24.4499 75.5663 25.0699L75.6663 32.9799L69.2063 37.5499C68.6963 37.9099 68.4363 38.5299 68.5363 39.1399C68.6363 39.7499 69.0763 40.2599 69.6663 40.4399L77.2163 42.7899L79.5663 50.3399C79.7463 50.9299 80.2563 51.3699 80.8663 51.4699C81.4763 51.5699 82.0963 51.3099 82.4563 50.7999L87.0263 44.3399L94.9363 44.4399C95.5563 44.4399 96.1263 44.0999 96.4063 43.5499C96.6863 42.9999 96.6263 42.3299 96.2563 41.8299L96.2663 41.8399Z" fill="#00AEEF"/>
<path d="M21.2466 89.3698V96.2498H76.0866V89.3698C76.0866 83.1898 73.9666 80.5998 69.8966 78.2498L60.2066 74.2798H60.1866L57.5766 72.3298C55.0966 74.3998 52.0166 75.6398 48.6666 75.6398C45.3166 75.6398 42.2166 74.3898 39.7366 72.3098L37.0966 74.2698L27.4366 78.2398C23.3566 80.5898 21.2466 83.1798 21.2466 89.3598V89.3698Z" fill="#004666"/>
<path d="M48.6664 42.8799C43.0964 42.8799 38.5664 47.3199 38.5664 52.8099V59.6099C38.5664 65.9399 43.0964 71.0599 48.6664 71.0599C54.2364 71.0599 58.7664 65.9399 58.7664 59.6099V52.8099C58.7664 47.3299 54.2464 42.8799 48.6664 42.8799Z" fill="#004666"/>
</g>
<defs>
<clipPath id="clip0_1957_39250">
<rect width="96" height="96" fill="white" transform="translate(0.666504 0.399902)"/>
</clipPath>
</defs>
</svg>
