<svg width="96" height="96" viewBox="0 0 96 96" fill="none" xmlns="http://www.w3.org/2000/svg">
<g clip-path="url(#clip0_1634_37248)">
<path d="M92.0002 43.8354H74.9402C74.1802 48.6254 73.2402 52.2954 68.2502 52.2954L42.3402 52.0654C42.1302 52.0654 41.9202 52.1554 41.7402 52.2854V76.2954C41.7402 78.5054 43.5302 80.2954 45.7402 80.2954H65.2502C66.0502 80.2954 66.8102 80.6154 67.3702 81.1854L80.2902 94.2054C80.5702 94.4954 80.9602 94.6554 81.3502 94.6554C81.5402 94.6554 81.7302 94.6154 81.9202 94.5454C82.4802 94.3154 82.8502 93.7654 82.8502 93.1654V80.3054H92.0002C94.2102 80.3054 96.0002 78.5154 96.0002 76.3054V47.8454C96.0002 45.6354 94.2102 43.8454 92.0002 43.8454V43.8354Z" fill="#004666"/>
<path d="M53.5701 66.0152C51.3901 66.0152 49.6201 64.2452 49.6201 62.0652C49.6201 59.8852 51.3901 58.1152 53.5701 58.1152C55.7501 58.1152 57.5201 59.8852 57.5201 62.0652C57.5201 64.2452 55.7501 66.0152 53.5701 66.0152Z" fill="white"/>
<path d="M66.8299 66.0152C64.6499 66.0152 62.8799 64.2452 62.8799 62.0652C62.8799 59.8852 64.6499 58.1152 66.8299 58.1152C69.0099 58.1152 70.7799 59.8852 70.7799 62.0652C70.7799 64.2452 69.0099 66.0152 66.8299 66.0152Z" fill="white"/>
<path d="M80.1004 66.0152C77.9204 66.0152 76.1504 64.2452 76.1504 62.0652C76.1504 59.8852 77.9204 58.1152 80.1004 58.1152C82.2804 58.1152 84.0504 59.8852 84.0504 62.0652C84.0504 64.2452 82.2804 66.0152 80.1004 66.0152Z" fill="white"/>
<path d="M42.9 52.2152L71.66 52.3852C73.88 52.3952 75.68 50.6052 75.68 48.3852V5.34521C75.68 3.13521 73.89 1.34521 71.68 1.34521H4C1.79 1.34521 0 3.13521 0 5.34521V48.2152C0 50.4252 1.79 52.2152 4 52.2152H18.35V70.1552C18.35 71.0052 18.86 71.7552 19.64 72.0852C19.89 72.1952 20.16 72.2452 20.44 72.2452C20.98 72.2452 21.52 72.0352 21.92 71.6252L39.94 53.4652C40.58 52.8252 41.41 52.4052 42.3 52.2752C42.5 52.2352 42.7 52.2252 42.9 52.2252V52.2152Z" fill="#00AEEF"/>
<path d="M59.1799 21.2651C62.2299 21.2651 64.6899 23.7351 64.6899 26.7751C64.6899 29.8151 62.2299 32.2851 59.1799 32.2851C56.1299 32.2851 53.6699 29.8151 53.6699 26.7751C53.6699 23.7351 56.1399 21.2651 59.1799 21.2651Z" fill="white"/>
<path d="M22.1799 32.2851C19.1399 32.2851 16.6699 29.8151 16.6699 26.7751C16.6699 23.7351 19.1399 21.2651 22.1799 21.2651C25.2199 21.2651 27.6899 23.7351 27.6899 26.7751C27.6899 29.8151 25.2199 32.2851 22.1799 32.2851Z" fill="white"/>
<path d="M40.6897 32.2851C37.6397 32.2851 35.1797 29.8151 35.1797 26.7751C35.1797 23.7351 37.6397 21.2651 40.6897 21.2651C43.7397 21.2651 46.1997 23.7351 46.1997 26.7751C46.1997 29.8151 43.7297 32.2851 40.6897 32.2851Z" fill="white"/>
</g>
<defs>
<clipPath id="clip0_1634_37248">
<rect width="96" height="93.31" fill="white" transform="translate(0 1.34521)"/>
</clipPath>
</defs>
</svg>
