<svg width="96" height="96" viewBox="0 0 96 96" fill="none" xmlns="http://www.w3.org/2000/svg">
<g clip-path="url(#clip0_1634_34145)">
<path d="M46.2559 10.3552V1.80518C46.2559 0.835176 47.0359 0.0551758 48.0059 0.0551758C48.9759 0.0551758 49.7559 0.835176 49.7559 1.80518V10.3552H46.2559Z" fill="#004666"/>
<path d="M51.7858 15.8554H44.2158V13.2554C44.2158 11.3254 45.7858 9.75537 47.7158 9.75537H48.2858C50.2158 9.75537 51.7858 11.3254 51.7858 13.2554V15.8554Z" fill="#00AEEF"/>
<path d="M19.2451 39.1752C19.2451 26.1152 32.1151 15.5352 48.0051 15.5352C63.8951 15.5352 76.7651 26.1152 76.7651 39.1752H19.2451Z" fill="#00AEEF"/>
<path d="M87.4354 95.9453H8.56543C7.45543 95.9453 6.56543 95.0453 6.56543 93.9453C6.56543 92.8453 7.46543 91.9453 8.56543 91.9453H87.4354C88.5454 91.9453 89.4354 92.8453 89.4354 93.9453C89.4354 95.0453 88.5354 95.9453 87.4354 95.9453Z" fill="#004666"/>
<path d="M78.6055 41.0952H17.5455C16.5255 41.0952 15.5555 40.3952 15.4055 39.3852C15.2355 38.1452 16.1855 37.0952 17.3855 37.0952H78.4955C79.4955 37.0952 80.4155 37.7752 80.5755 38.7652C80.7755 40.0152 79.8155 41.1052 78.6055 41.1052V41.0952Z" fill="#00AEEF"/>
<path d="M19.2451 44.3452V66.7852H76.7651V44.3452H19.2451ZM35.3751 60.8152C35.3751 61.7852 34.5951 62.5652 33.6251 62.5652C32.6551 62.5652 31.8751 61.7852 31.8751 60.8152V50.3152C31.8751 49.3452 32.6551 48.5652 33.6251 48.5652C34.5951 48.5652 35.3751 49.3452 35.3751 50.3152V60.8152ZM49.7551 60.8152C49.7551 61.7852 48.9751 62.5652 48.0051 62.5652C47.0351 62.5652 46.2551 61.7852 46.2551 60.8152V50.3152C46.2551 49.3452 47.0351 48.5652 48.0051 48.5652C48.9751 48.5652 49.7551 49.3452 49.7551 50.3152V60.8152ZM64.1251 60.8152C64.1251 61.7852 63.3451 62.5652 62.3751 62.5652C61.4051 62.5652 60.6251 61.7852 60.6251 60.8152V50.3152C60.6251 49.3452 61.4051 48.5652 62.3751 48.5652C63.3451 48.5652 64.1251 49.3452 64.1251 50.3152V60.8152Z" fill="#00AEEF"/>
<path d="M10.165 70.0352V92.4752H85.845V70.0352H10.165ZM20.995 86.5051C20.995 87.4751 20.215 88.2551 19.245 88.2551C18.275 88.2551 17.495 87.4751 17.495 86.5051V76.0051C17.495 75.0351 18.275 74.2551 19.245 74.2551C20.215 74.2551 20.995 75.0351 20.995 76.0051V86.5051ZM35.375 86.5051C35.375 87.4751 34.595 88.2551 33.625 88.2551C32.655 88.2551 31.875 87.4751 31.875 86.5051V76.0051C31.875 75.0351 32.655 74.2551 33.625 74.2551C34.595 74.2551 35.375 75.0351 35.375 76.0051V86.5051ZM49.755 86.5051C49.755 87.4751 48.975 88.2551 48.005 88.2551C47.035 88.2551 46.255 87.4751 46.255 86.5051V76.0051C46.255 75.0351 47.035 74.2551 48.005 74.2551C48.975 74.2551 49.755 75.0351 49.755 76.0051V86.5051ZM64.125 86.5051C64.125 87.4751 63.345 88.2551 62.375 88.2551C61.405 88.2551 60.625 87.4751 60.625 86.5051V76.0051C60.625 75.0351 61.405 74.2551 62.375 74.2551C63.345 74.2551 64.125 75.0351 64.125 76.0051V86.5051ZM78.505 86.5051C78.505 87.4751 77.725 88.2551 76.755 88.2551C75.785 88.2551 75.005 87.4751 75.005 86.5051V76.0051C75.005 75.0351 75.785 74.2551 76.755 74.2551C77.725 74.2551 78.505 75.0351 78.505 76.0051V86.5051Z" fill="#00AEEF"/>
</g>
<defs>
<clipPath id="clip0_1634_34145">
<rect width="82.87" height="95.89" fill="white" transform="translate(6.56543 0.0551758)"/>
</clipPath>
</defs>
</svg>
