<svg width="96" height="96" viewBox="0 0 96 96" fill="none" xmlns="http://www.w3.org/2000/svg">
<g clip-path="url(#clip0_1957_38704)">
<path d="M4.08038 57.1292C2.97038 57.1292 1.86038 56.6783 1.05038 55.7864C-0.459622 54.1129 -0.339621 51.5275 1.33038 50.0144L35.4904 19.0098C36.8404 17.7772 38.8504 17.6069 40.3904 18.5789L59.2504 30.4136L87.2904 2.88621C88.9004 1.30291 91.4804 1.33297 93.0604 2.94633C94.6404 4.55969 94.6104 7.14508 93.0004 8.72838L62.6804 38.4904C61.3304 39.8131 59.2604 40.0336 57.6604 39.0315L38.6904 27.1367L6.82038 56.077C6.04038 56.7885 5.06038 57.1392 4.08038 57.1392V57.1292Z" fill="#004666"/>
<path d="M79.4895 4.6395L91.0795 16.4842C91.8695 17.2858 93.2395 16.865 93.4395 15.7527L95.9795 1.63324C96.1495 0.691275 95.3395 -0.140458 94.3895 0.009855L80.2595 2.28459C79.1495 2.46497 78.6995 3.82781 79.4895 4.62948V4.6395Z" fill="#004666"/>
<path d="M13.8897 61.1772H21.5297C23.4397 61.1772 24.9897 62.7305 24.9897 64.6445V95.9998H10.4297V64.6445C10.4297 62.7305 11.9797 61.1772 13.8897 61.1772Z" fill="#00AEEF"/>
<path d="M36.7198 42.1074H44.3598C46.2698 42.1074 47.8198 43.6607 47.8198 45.5746V95.9997H33.2598V45.5746C33.2598 43.6607 34.8098 42.1074 36.7198 42.1074Z" fill="#00AEEF"/>
<path d="M59.5401 48.9419H67.1801C69.0901 48.9419 70.6401 50.4951 70.6401 52.4091V95.9899H56.0801V52.4091C56.0801 50.4951 57.6301 48.9419 59.5401 48.9419Z" fill="#00AEEF"/>
<path d="M82.3702 32.2671H90.0102C91.9202 32.2671 93.4702 33.8203 93.4702 35.7343V95.9999H78.9102V35.7343C78.9102 33.8203 80.4602 32.2671 82.3702 32.2671Z" fill="#00AEEF"/>
</g>
<defs>
<clipPath id="clip0_1957_38704">
<rect width="96" height="96" fill="white"/>
</clipPath>
</defs>
</svg>
