<svg width="96" height="96" viewBox="0 0 96 96" fill="none" xmlns="http://www.w3.org/2000/svg">
<g clip-path="url(#clip0_1634_38610)">
<path d="M96.0002 32.7752L73.8202 10.5952L58.4102 26.0052C58.4102 26.0052 57.8202 26.6752 57.5402 26.7952C57.2902 26.9152 57.1002 26.8852 56.4502 26.9552C55.0002 27.1052 52.5102 27.4152 51.5902 27.8952C48.2802 29.6152 41.0302 38.4552 41.0302 38.4552C39.3402 40.1452 39.3402 42.8952 41.0302 44.5952C42.7202 46.2852 45.4702 46.2852 47.1702 44.5952L54.6802 37.0852C57.2202 38.6252 60.2802 37.4452 60.2802 37.4452C63.1302 39.2452 61.2302 43.6752 61.2302 43.6752L73.1702 55.6152L79.7302 49.0552L95.9902 32.7952L96.0002 32.7752Z" fill="#004666"/>
<path d="M42.3498 71.3852C42.3498 70.6252 42.0498 69.9152 41.5198 69.3752C40.9798 68.8352 40.2698 68.5452 39.5098 68.5452C38.7498 68.5452 38.0398 68.8352 37.4998 69.3752L32.3598 74.5152C31.8198 75.0552 31.5298 75.7652 31.5298 76.5252C31.5298 77.2852 31.8298 77.9952 32.3598 78.5352C33.4298 79.6052 35.2998 79.6052 36.3698 78.5352L41.5098 73.3952C42.0498 72.8552 42.3398 72.1452 42.3398 71.3852H42.3498Z" fill="#004666"/>
<path d="M29.3899 61.2553C30.4999 60.1453 30.4999 58.3453 29.3899 57.2453C28.8499 56.7053 28.1399 56.4153 27.3799 56.4153C26.6199 56.4153 25.9099 56.7053 25.3699 57.2453L20.2299 62.3853C19.6899 62.9253 19.3999 63.6353 19.3999 64.3953C19.3999 65.1553 19.6999 65.8653 20.2299 66.4053C21.3399 67.5053 23.1399 67.5153 24.2399 66.4053L29.3799 61.2653L29.3899 61.2553Z" fill="#004666"/>
<path d="M38.6598 62.9452C38.6598 62.1852 38.3598 61.4752 37.8298 60.9352C37.2898 60.3952 36.5798 60.1052 35.8198 60.1052C35.0598 60.1052 34.3498 60.3952 33.8098 60.9352L26.2998 68.4452C25.1898 69.5552 25.1898 71.3552 26.2998 72.4552C27.4098 73.5652 29.2098 73.5652 30.3098 72.4552L37.8198 64.9452C38.3598 64.4052 38.6498 63.6952 38.6498 62.9352L38.6598 62.9452Z" fill="#004666"/>
<path d="M45.4501 81.5951C46.5601 80.4851 46.5601 78.6851 45.4501 77.5851C44.9101 77.0451 44.2001 76.7551 43.4401 76.7551C42.6801 76.7551 41.9701 77.0451 41.4301 77.5851L38.4301 80.5851C37.8901 81.1251 37.6001 81.8351 37.6001 82.5951C37.6001 83.3551 37.9001 84.0651 38.4301 84.6051C39.5001 85.6751 41.3701 85.6751 42.4401 84.6051L45.4401 81.6051L45.4501 81.5951Z" fill="#004666"/>
<path d="M72.38 59.0552L71.75 58.4252L67.39 54.1152L67.3 53.9752L59.11 45.7852C58.25 44.9252 58 43.6152 58.47 42.4952C58.67 42.0052 58.82 41.3352 58.85 40.8052C58.5 40.8452 58.12 40.8652 57.72 40.8652C56.91 40.8652 56.14 40.7752 55.41 40.5852L49.29 46.7052C47.9 48.0952 46.06 48.8552 44.1 48.8552C42.14 48.8552 40.3 48.0952 38.91 46.7052C36.05 43.8452 36.05 39.1852 38.91 36.3252L45.75 29.4852H37.28C37.28 29.4852 36.42 29.4652 36.14 29.3452C35.89 29.2452 35.31 28.7352 35.31 28.7352L21.36 14.7852L0 36.1352L16.26 52.3952L21.11 57.2452L23.25 55.1052C24.35 54.0052 25.82 53.3952 27.38 53.3952C28.94 53.3952 30.41 54.0052 31.51 55.1052C32.28 55.8752 32.77 56.8152 33.02 57.8052C33.87 57.3352 34.83 57.0852 35.83 57.0852C37.39 57.0852 38.86 57.6952 39.96 58.7952C41.06 59.8952 41.67 61.3652 41.67 62.9252C41.67 63.9152 41.42 64.8652 40.96 65.7152C41.97 65.9652 42.9 66.4852 43.65 67.2452C44.75 68.3452 45.36 69.8152 45.36 71.3752C45.36 72.2652 45.16 73.1252 44.78 73.9052C45.83 74.1452 46.8 74.6752 47.58 75.4552C49.86 77.7352 49.86 81.4352 47.58 83.7052L47.93 84.0552C49.62 85.7452 52.37 85.7452 54.07 84.0552C55.77 82.3652 55.76 79.6152 54.07 77.9152L53.72 77.5652L53.78 77.5052L54.13 77.8552C55.82 79.5452 58.57 79.5452 60.27 77.8552C61.96 76.1652 61.96 73.4152 60.27 71.7152L59.94 71.3852L60 71.3252L60.33 71.6552C62.02 73.3452 64.77 73.3452 66.47 71.6552C68.17 69.9652 68.16 67.2152 66.47 65.5152L66.17 65.2152L66.23 65.1552L66.53 65.4552C68.22 67.1452 70.97 67.1452 72.67 65.4552C74.36 63.7652 74.36 61.0152 72.67 59.3152L72.39 59.0352L72.38 59.0552Z" fill="#00AEEF"/>
</g>
<defs>
<clipPath id="clip0_1634_38610">
<rect width="96" height="74.81" fill="white" transform="translate(0 10.5952)"/>
</clipPath>
</defs>
</svg>
