<svg width="96" height="97" viewBox="0 0 96 97" fill="none" xmlns="http://www.w3.org/2000/svg">
<g clip-path="url(#clip0_1634_33489)">
<path d="M47.9632 10.0199C47.1356 8.4599 46.1088 7.0099 44.8411 5.7199C41.4885 2.2899 37.0253 0.399902 32.2688 0.399902C27.5123 0.399902 23.0491 2.2899 19.6965 5.7199C16.3334 9.1599 14.479 13.7199 14.479 18.5699C14.479 23.4199 16.4172 29.4399 18.7955 33.6399C24.2016 43.1599 40.4303 58.8399 47.9632 64.4699C55.4961 58.8399 71.7249 43.1599 77.131 33.6399C79.5092 29.4399 81.4475 23.4199 81.4475 18.5699C81.4475 13.7199 79.6035 9.1599 76.23 5.7199C72.8878 2.2899 68.4247 0.399902 63.6681 0.399902C58.9116 0.399902 54.4484 2.2899 51.0958 5.7199C49.8281 7.0099 48.8014 8.4599 47.9737 10.0199H47.9632Z" fill="#00AEEF"/>
<path d="M47.9634 64.4699C55.4963 58.8399 71.725 43.1599 77.1311 33.6399C79.5094 29.4399 81.4476 23.4199 81.4476 18.5699C81.4476 13.7199 79.6037 9.1599 76.2301 5.7199C72.888 2.2899 68.4248 0.399902 63.6683 0.399902C58.9118 0.399902 54.4486 2.2899 51.096 5.7199C49.8283 7.0099 48.8015 8.4599 47.9739 10.0199" fill="#80D7F7"/>
<path d="M38.2303 79.6201C38.2093 79.5601 38.1779 79.5101 38.1569 79.4501C36.7006 76.5901 22.5149 60.9701 21.0167 58.6301L18.3451 54.6901C18.2508 54.5701 18.167 54.4601 18.0832 54.3501C16.6059 52.5401 14.2486 52.8901 13.6305 53.2201C12.5304 53.7101 11.4094 56.1801 11.9856 57.3601L14.4686 62.3501C15.3382 64.0901 16.2811 65.7901 17.2974 67.4601L21.2681 72.8701C21.9911 73.8601 21.7396 75.2201 20.7024 75.9101C20.3043 76.1801 19.8433 76.3101 19.3928 76.3101C18.6699 76.3101 17.9574 75.9901 17.5174 75.3801L8.96824 63.7301C8.6225 63.2601 8.50726 62.7001 8.5806 62.1701C8.06723 56.8401 8.37106 39.5601 8.37106 39.5601C8.37106 37.3501 6.49569 35.5601 4.19077 35.5601C1.87537 35.5601 0 37.3401 0 39.5501V70.3601C0 71.6701 0.502892 72.9301 1.40391 73.9101L19.5185 96.4001H40.2733C40.3047 95.5401 40.6295 86.1701 38.2303 79.6201Z" fill="#004666"/>
<path d="M91.8196 35.5498C89.5042 35.5498 87.6394 37.3398 87.6394 39.5498C87.6394 39.5498 87.9432 56.8298 87.4298 62.1598C87.5136 62.6898 87.3879 63.2498 87.0422 63.7198L78.493 75.3698C78.053 75.9798 77.3405 76.2998 76.6176 76.2998C76.1671 76.2998 75.7061 76.1698 75.308 75.8998C74.2708 75.2098 74.0194 73.8498 74.7423 72.8598L78.713 67.4498C79.7293 65.7798 80.6722 64.0798 81.5418 62.3398L84.0248 57.3498C84.601 56.1698 83.48 53.6998 82.3799 53.2098C81.7618 52.8698 79.4045 52.5198 77.9272 54.3398C77.8434 54.4398 77.7596 54.5598 77.6653 54.6798L74.9937 58.6198C73.4955 60.9698 59.3098 76.5798 57.8535 79.4398C57.8325 79.4998 57.8011 79.5498 57.7801 79.6098C55.3809 86.1598 55.6952 95.5298 55.7371 96.3898H76.4919L94.6065 73.8998C95.518 72.9198 96.0104 71.6598 96.0104 70.3598V39.5498C96.0104 37.3398 94.135 35.5498 91.8196 35.5498Z" fill="#004666"/>
</g>
<defs>
<clipPath id="clip0_1634_33489">
<rect width="96" height="96" fill="white" transform="translate(0 0.399902)"/>
</clipPath>
</defs>
</svg>
