<svg width="97" height="97" viewBox="0 0 97 97" fill="none" xmlns="http://www.w3.org/2000/svg">
<g clip-path="url(#clip0_1634_39178)">
<path d="M27.105 48.2198C27.155 49.3298 26.8548 50.3898 26.2343 51.2898C26.1142 51.4498 25.9941 51.6198 25.854 51.7698L17.0866 61.4298L17.0666 61.4598C16.9465 61.5898 16.8164 61.7198 16.6863 61.8298C15.7655 62.6598 14.5946 63.0698 13.4236 63.0698C12.2526 63.0698 11.0716 62.6498 10.1409 61.7998C8.12918 59.9798 7.97906 56.8798 9.79056 54.8798L10.341 54.2698L18.5779 45.1798C19.4486 44.2098 20.6596 43.6498 21.9707 43.5798C22.0508 43.5698 22.1308 43.5698 22.2109 43.5698C23.4419 43.5698 24.6029 44.0198 25.5037 44.8298C26.4044 45.6598 26.9649 46.7498 27.085 47.9698C27.095 48.0598 27.105 48.1298 27.105 48.2198Z" fill="#004666"/>
<path d="M96.3329 25.2799C96.3329 31.1799 96.3329 40.8799 85.9142 49.8199C85.9042 49.8299 85.8942 49.8399 85.8842 49.8499L82.1811 45.6999L66.6182 26.6999H66.6682C66.9084 26.7099 67.1686 26.7099 67.4188 26.7099C71.0218 26.7099 75.3655 26.0199 80.1294 23.8799C81.0902 23.4499 81.5106 22.3299 81.0802 21.3699C80.7599 20.6699 80.0794 20.2599 79.3588 20.2599C79.0986 20.2599 78.8283 20.3099 78.5781 20.4199C74.865 22.0899 71.1519 22.9299 67.4789 22.9299C67.0685 22.9299 66.6582 22.9199 66.2479 22.8999C65.8976 22.8899 65.5373 22.8599 65.197 22.8199C65.0168 22.8099 64.8367 22.7899 64.6665 22.7499C64.4564 22.7399 64.2562 22.7099 64.056 22.6699C63.7958 22.6399 63.5456 22.5899 63.2954 22.5499L63.1753 22.5299L63.0752 22.5099H63.0552C63.0051 22.4999 62.9351 22.4899 62.885 22.4799C62.785 22.4699 62.6949 22.4499 62.6048 22.4299C61.1336 22.1299 59.9026 21.7199 58.9418 21.3399C58.8016 21.2899 58.6715 21.2299 58.5514 21.1799C58.2612 21.0599 58.001 20.9399 57.7708 20.8299C57.6107 20.7499 57.4705 20.6899 57.3404 20.6099C57.2203 20.5399 57.1102 20.4799 57.0102 20.4399C56.9701 20.4199 56.9201 20.3899 56.88 20.3599L56.7599 20.2899L56.5398 20.1699L56.5097 20.1499C56.3896 20.0599 56.2595 19.9999 56.1194 19.9699H56.1094L56.0794 19.9499H56.0494C55.8892 19.8899 55.7091 19.8499 55.5489 19.8499H55.4689C54.9384 19.8499 54.398 20.0699 54.0277 20.4999C54.0077 20.5199 53.8175 20.7399 53.3171 21.2399C53.1169 21.4399 52.8667 21.6899 52.5664 21.9799C52.4163 22.1299 52.2462 22.2999 52.066 22.4699C51.7057 22.8199 51.2854 23.2199 50.785 23.6899C50.5348 23.9299 50.2745 24.1699 49.9843 24.4399C49.4138 24.9599 48.7733 25.5599 48.0427 26.2099C46.9418 27.2099 45.6607 28.3599 44.1594 29.6899C42.2579 31.3599 40.4463 32.2199 38.9151 32.2199C37.9543 32.2199 37.1136 31.8799 36.403 31.2099C34.7916 29.6599 34.4313 26.7699 35.6423 25.2399C35.8926 24.9799 36.1428 24.7199 36.393 24.4499C36.8233 23.9899 37.2737 23.5299 37.7241 23.0599C37.9643 22.8099 38.2045 22.5499 38.4547 22.2899C38.845 21.8799 39.2353 21.4599 39.6357 21.0499C40.2462 20.4099 40.8667 19.7699 41.4872 19.1199C41.9776 18.6099 42.468 18.0999 42.9584 17.5899C43.7791 16.7499 44.5798 15.9199 45.3705 15.0999C45.7508 14.6999 46.1411 14.2999 46.5214 13.8999C47.3721 13.0399 48.1828 12.1999 48.9735 11.4099C49.2337 11.1499 49.4839 10.8899 49.7341 10.6399C49.7341 10.6399 49.7374 10.6332 49.7441 10.6199C49.9943 10.3699 50.2345 10.1299 50.4647 9.8999L51.1753 9.1899C51.4055 8.9599 51.6357 8.7299 51.8458 8.5199C52.016 8.3499 52.1861 8.1699 52.3563 8.0099C53.187 7.1799 53.9076 6.4899 54.4981 5.9399C54.6382 5.7999 54.7783 5.6799 54.9084 5.5599C54.9584 5.5099 55.0285 5.4499 55.0785 5.3999C55.2387 5.2599 55.3788 5.1299 55.4989 5.0299C55.609 4.9299 55.7091 4.8599 55.7791 4.7999C59.9426 1.6999 65.5673 0.399902 70.6415 0.399902C73.3238 0.399902 75.8559 0.759902 77.9276 1.4199C94.9718 6.8299 96.3429 25.0999 96.3429 25.2699L96.3329 25.2799Z" fill="#004666"/>
<path d="M41.1969 53.19C41.1969 53.33 41.1869 53.48 41.1769 53.62C41.1668 53.73 41.1568 53.84 41.1468 53.94C41.1268 54.05 41.1168 54.16 41.0768 54.26C40.9767 54.74 40.7965 55.21 40.5563 55.64C40.5063 55.73 40.4462 55.8 40.3962 55.89L40.3662 55.94C40.2461 56.13 40.096 56.31 39.9458 56.48L37.2135 59.49L27.8057 69.86C27.8057 69.86 27.7857 69.88 27.7757 69.89L26.925 70.84C26.0542 71.81 24.8432 72.37 23.5321 72.44H23.302C22.0709 72.44 20.9 72.01 19.9992 71.18H19.9892C18.8082 70.11 18.2678 68.59 18.3979 67.1C18.4179 66.83 18.4679 66.56 18.538 66.3C18.558 66.2 18.588 66.09 18.6281 66C18.7081 65.79 18.7782 65.6 18.8783 65.4C18.9483 65.27 19.0084 65.14 19.0884 65.01C19.2186 64.8 19.3687 64.6 19.5388 64.4C19.5388 64.4 19.5388 64.39 19.5488 64.39C19.5789 64.35 19.6189 64.3 19.6589 64.26L19.8991 63.99L21.7507 61.96L29.2369 53.7L32.6397 49.94L32.6698 49.91C33.6406 48.83 34.9717 48.29 36.3128 48.29C37.4838 48.29 38.6748 48.71 39.6055 49.56C40.6764 50.53 41.2169 51.86 41.2169 53.2L41.1969 53.19Z" fill="#004666"/>
<path d="M46.9917 68.9798L46.9216 69.0498L46.9016 69.0798L38.1943 78.6798C37.3236 79.6498 36.1126 80.2098 34.8015 80.2798H34.5713C33.3403 80.2798 32.1693 79.8398 31.2485 79.0198C30.1777 78.0498 29.6372 76.7298 29.6372 75.3898C29.6372 75.2398 29.6472 75.0998 29.6572 74.9398C29.6672 74.8298 29.6772 74.7198 29.6973 74.6098C29.7173 74.4798 29.7373 74.3598 29.7773 74.2298C29.7973 74.1298 29.8174 74.0398 29.8574 73.9498C29.8774 73.8698 29.8974 73.8098 29.9274 73.7298C29.9375 73.6998 29.9475 73.6498 29.9675 73.6198C29.9675 73.6198 29.9708 73.6131 29.9775 73.5998C30.0175 73.4798 30.0776 73.3498 30.1376 73.2298C30.2077 73.0998 30.2677 72.9598 30.3578 72.8298C30.4379 72.6998 30.5179 72.5698 30.618 72.4498C30.628 72.4398 30.638 72.4198 30.6581 72.3998H30.6681C30.7481 72.2898 30.8182 72.1898 30.9083 72.0998L39.6956 62.3998C39.8057 62.2798 39.9158 62.1598 40.0359 62.0498C40.186 61.9198 40.3361 61.7898 40.5163 61.6698C40.5263 61.6598 40.5463 61.6498 40.5663 61.6398C40.5763 61.6298 40.5963 61.6198 40.6063 61.6198C40.7565 61.5098 40.9066 61.4198 41.0767 61.3498C41.1968 61.2798 41.3169 61.2298 41.4471 61.1798C41.5672 61.1298 41.6973 61.0798 41.8274 61.0398H41.8474C41.9775 60.9898 42.1076 60.9498 42.2377 60.9298C42.3678 60.8998 42.5079 60.8798 42.648 60.8498C42.7882 60.8198 42.9283 60.8198 43.0684 60.8098H43.0784C43.1585 60.7998 43.2285 60.7998 43.3186 60.7998C44.5496 60.7998 45.7106 61.2498 46.6114 62.0598C48.623 63.8798 48.7732 66.9798 46.9616 68.9898L46.9917 68.9798Z" fill="#004666"/>
<path d="M85.4937 61.9901C84.603 62.8101 83.482 63.2101 82.3611 63.2101C81.1 63.2101 79.839 62.7001 78.9082 61.6901L62.3044 44.3101C61.9341 43.9201 61.4437 43.7201 60.9432 43.7201C60.5829 43.7201 60.2326 43.8201 59.9224 44.0101C59.8123 44.0901 59.7122 44.1601 59.6221 44.2501C58.8715 44.9801 58.8415 46.1701 59.5521 46.9201L76.6063 64.7801C77.2969 65.5201 77.6071 66.5401 77.507 67.6401C77.3969 68.8101 76.8365 69.9201 75.9157 70.7601C74.9549 71.6401 73.7739 72.0901 72.643 72.0901C71.5921 72.0901 70.5913 71.7001 69.8607 70.9201L67.4987 68.4501C67.4286 68.3601 67.3686 68.2801 67.2985 68.2001C67.2085 68.1001 67.1284 68.0301 67.0283 67.9601L51.8857 52.1401C51.5154 51.7501 51.015 51.5501 50.5145 51.5501C50.0442 51.5501 49.5838 51.7201 49.2135 52.0801C48.4628 52.8001 48.4328 53.9901 49.1634 54.7501L64.216 70.4801C64.296 70.6201 64.3761 70.7501 64.4862 70.8701C65.0967 71.5201 65.2368 72.3801 65.2268 73.0701C65.2268 73.2901 65.2168 73.4901 65.1868 73.7201C65.1868 73.7301 65.1768 73.7501 65.1768 73.7601C64.9966 74.9101 64.4361 76.0601 63.6755 76.9101C63.5554 77.0301 63.4453 77.1401 63.3252 77.2501C63.2752 77.3001 63.2151 77.3601 63.1551 77.4001C63.105 77.4501 63.045 77.5001 62.9849 77.5401C62.1342 78.1701 61.0834 78.4701 60.0425 78.4701C59.472 78.4701 58.9115 78.3701 58.4011 78.1901C58.0608 78.0501 57.7706 77.8401 57.5104 77.5901C57.5004 77.5901 57.4904 77.5801 57.4804 77.5701C57.2402 75.7301 56.3694 73.9601 54.8782 72.6101C53.6572 71.5001 52.1559 70.8201 50.5446 70.6001C50.5346 70.5901 50.5145 70.5901 50.5045 70.5901C50.5145 70.5801 50.5145 70.5701 50.5246 70.5601C52.9366 67.0301 52.4361 62.1701 49.1834 59.2201C47.7623 57.9401 46.0108 57.1901 44.1092 57.0301C44.0992 57.0201 44.0792 57.0201 44.0692 57.0201C44.0792 57.0001 44.0892 56.9901 44.0892 56.9701C45.7306 53.5801 45.05 49.3801 42.1175 46.7301C40.4562 45.2301 38.3644 44.4901 36.2827 44.4901C34.201 44.4901 32.3094 45.1601 30.708 46.5001C30.698 46.5101 30.678 46.5201 30.668 46.5301C30.668 46.5201 30.658 46.5001 30.658 46.4901C30.4578 45.6301 30.1476 44.8301 29.7072 44.0701C29.2768 43.3101 28.7064 42.6101 28.0358 42.0001C26.4245 40.5401 24.3728 39.7601 22.201 39.7601C22.0608 39.7601 21.9107 39.7601 21.7706 39.7701C19.4387 39.8801 17.3069 40.8901 15.7556 42.6101L10.4111 48.5001C10.4111 48.5001 10.3911 48.4801 10.3911 48.4701C9.60045 47.5801 8.30937 46.0601 6.18761 43.4801C1.12339 37.3201 -1.0184 27.5801 1.21346 20.8601C5.65716 7.54006 13.4036 1.56006 26.2743 1.56006H26.5045C35.2318 1.59006 41.6472 8.46006 43.839 11.1701C43.839 11.1801 43.849 11.1901 43.859 11.2001C38.9149 16.2801 33.8106 21.6701 32.8298 22.7101C32.7998 22.7401 32.7598 22.7801 32.7397 22.8101C30.2176 25.8801 30.688 30.9701 33.7606 33.9401C35.0216 35.1601 36.7831 36.0201 38.8949 36.0201C39.3152 36.0201 39.7556 35.9901 40.1959 35.9101C40.6463 35.8401 41.1067 35.7401 41.5771 35.5801C41.8974 35.4701 42.2176 35.3501 42.5379 35.2201C42.8682 35.0801 43.1884 34.9201 43.5287 34.7401C43.6889 34.6501 43.869 34.5601 44.0291 34.4601C44.5396 34.1601 45.06 33.8101 45.5804 33.4101C45.9307 33.1501 46.281 32.8601 46.6313 32.5401C51.8356 27.9401 54.4979 25.4001 55.7889 24.1001C56.9399 24.6801 58.7714 25.4401 61.1334 25.9901L79.2885 48.1501L85.3936 55.0201L85.7639 55.4301C87.5054 57.3101 87.3753 60.2501 85.4937 61.9701V61.9901Z" fill="#00AEEF"/>
<path d="M53.737 79.0198C53.6569 79.9398 53.3166 80.8598 52.6461 81.5998L47.782 86.9598C46.9213 87.9098 45.7403 88.3898 44.5493 88.3898C44.4192 88.3898 44.2791 88.3798 44.149 88.3698C44.0489 88.3598 43.9488 88.3498 43.8588 88.3398C43.7587 88.3298 43.6586 88.3098 43.5785 88.2898C43.4784 88.2698 43.3784 88.2498 43.2983 88.2098C43.1982 88.1798 43.0981 88.1398 43.0181 88.1098H43.008C42.5076 87.9098 42.0372 87.6298 41.6269 87.2598C40.7662 86.4798 40.2658 85.4098 40.2157 84.2398C40.1457 83.0798 40.556 81.9598 41.3266 81.0998L46.1907 75.7398C46.9613 74.8798 48.0422 74.3798 49.2032 74.3198H49.5235C49.5235 74.3198 49.5535 74.3198 49.5635 74.3298C49.5735 74.3298 49.5835 74.3298 49.5935 74.3198C49.6236 74.3198 49.6436 74.3198 49.6836 74.3298C49.7337 74.3298 49.7937 74.3298 49.8337 74.3398C49.9739 74.3498 50.104 74.3598 50.2341 74.3898C50.4943 74.4298 50.7445 74.5098 50.9947 74.5998C51.2449 74.6998 51.4851 74.8198 51.7053 74.9598C51.9355 75.0898 52.1357 75.2498 52.3458 75.4398C52.4259 75.5098 52.496 75.5798 52.576 75.6598C52.6461 75.7398 52.7061 75.7998 52.7562 75.8798C52.8863 76.0298 53.0064 76.1798 53.1065 76.3598C53.2466 76.5798 53.3567 76.8098 53.4568 77.0398C53.4968 77.1598 53.5468 77.2798 53.5769 77.3998C53.6569 77.6498 53.707 77.8998 53.737 78.1498C53.727 78.1698 53.727 78.1998 53.727 78.2298C53.717 78.2398 53.727 78.2498 53.727 78.2498C53.717 78.2898 53.707 78.3298 53.707 78.3598C53.697 78.4798 53.6869 78.5998 53.707 78.7198V78.7598C53.707 78.7598 53.707 78.8098 53.717 78.8398C53.717 78.9098 53.727 78.9698 53.747 79.0398L53.737 79.0198Z" fill="#004666"/>
</g>
<defs>
<clipPath id="clip0_1634_39178">
<rect width="96" height="96" fill="white" transform="translate(0.333496 0.399902)"/>
</clipPath>
</defs>
</svg>
