<svg width="96" height="96" viewBox="0 0 96 96" fill="none" xmlns="http://www.w3.org/2000/svg">
<g clip-path="url(#clip0_1957_18798)">
<path d="M70.3498 62.37C80.9798 56.48 87.3298 45.74 87.3298 33.64C87.3298 19.27 73.2698 4 47.2298 4C23.1398 4 16.0798 22.23 14.1598 30.07C13.1198 34.31 14.5898 36.14 15.7798 37.62C16.5398 38.57 17.1898 39.38 16.8898 40.57C16.3298 42.84 14.9198 45.04 12.7698 48.36L12.2098 49.23C10.1198 52.45 8.13978 55.5 8.78978 57.13C9.12978 57.98 10.4898 59.22 15.0398 60.31C15.9698 60.53 16.5898 61.4 16.4698 62.34L16.3998 62.93C16.2398 64.33 15.6398 65.51 15.0598 66.46C14.4798 67.4 14.9898 68.63 16.0598 68.9C16.3898 68.98 17.9398 69.95 18.1198 70.25C18.3698 70.67 17.2798 70.97 16.2798 72.65C15.9998 73.11 16.0798 73.72 16.4598 74.1C17.5698 75.18 19.6298 76.51 19.6298 78.8C19.6298 82.19 21.0498 84.14 23.5298 84.14C24.5598 84.14 27.9998 84.07 32.1798 83.77C38.9898 82.62 45.8398 80.82 46.9998 80.25C49.7698 78.9 50.0798 75.92 50.1698 72.72C50.1798 72.27 50.1898 71.86 50.2198 71.51C50.2998 70.41 51.2498 69.59 52.3498 69.65C53.4498 69.73 54.2798 70.68 54.2098 71.78C54.1898 72.08 54.1798 72.43 54.1698 72.82C54.0898 75.79 53.9298 81.31 48.7598 83.83C47.3498 84.52 41.4398 86.11 35.0898 87.3V87.46C35.0898 88.01 35.0698 91.52 35.0298 91.98H72.1998C71.4498 86.61 69.4998 68.3 69.4098 64.02C69.3898 63.33 69.7698 62.7 70.3798 62.36L70.3498 62.37Z" fill="#00AEEF"/>
<path d="M50.4104 30.2402C50.8404 29.3802 51.3804 28.5902 52.0504 27.8802C53.8104 26.0002 56.1504 24.9702 58.6404 24.9702C61.1304 24.9702 63.4704 26.0102 65.2304 27.8802C66.9904 29.7702 67.9604 32.2702 67.9604 34.9202C67.9604 37.5702 66.9403 40.8802 65.7003 43.1802C62.8703 48.3902 54.3604 56.9902 50.4104 60.0702C46.4604 56.9902 37.9503 48.4002 35.1203 43.1802C33.8703 40.8802 32.8604 37.5802 32.8604 34.9202C32.8604 32.2602 33.8304 29.7602 35.5904 27.8802C37.3504 26.0002 39.6904 24.9702 42.1804 24.9702C44.6704 24.9702 47.0104 26.0102 48.7704 27.8802C49.4304 28.5902 49.9804 29.3802 50.4104 30.2402Z" fill="#E0F5FD"/>
<path d="M50.4104 60.0702C46.4604 56.9902 37.9503 48.4002 35.1203 43.1802C33.8703 40.8802 32.8604 37.5802 32.8604 34.9202C32.8604 32.2602 33.8304 29.7602 35.5904 27.8802C37.3504 26.0002 39.6904 24.9702 42.1804 24.9702C44.6704 24.9702 47.0104 26.0102 48.7704 27.8802C49.4304 28.5902 49.9804 29.3802 50.4104 30.2402" fill="#80D7F7"/>
<path d="M50.4104 62.07C49.9804 62.07 49.5404 61.93 49.1804 61.65C47.9804 60.72 46.3904 59.31 44.7104 57.68C44.6903 57.66 44.6704 57.64 44.6504 57.62L38.5004 51.14C36.0904 48.35 34.3903 46.02 33.3703 44.15C31.8503 41.34 30.8604 37.73 30.8604 34.94C30.8604 31.77 32.0204 28.79 34.1304 26.53C36.2704 24.24 39.1304 22.98 42.1804 22.98C45.2304 22.98 48.0904 24.24 50.2304 26.53C50.2903 26.59 50.3504 26.66 50.4104 26.72C50.4704 26.65 50.5304 26.59 50.5904 26.52C52.7304 24.24 55.5904 22.98 58.6404 22.98C61.6903 22.98 64.5504 24.24 66.6904 26.53C68.8004 28.78 69.9604 31.77 69.9604 34.94C69.9604 37.73 68.9803 41.35 67.4503 44.15C66.6403 45.65 65.3804 47.44 63.7004 49.5L60.1604 53.55C57.1704 56.77 53.8404 59.94 51.6304 61.66C51.2704 61.94 50.8304 62.08 50.4004 62.08L50.4104 62.07ZM47.5103 54.83C48.5504 55.83 49.5403 56.74 50.4104 57.48C52.3703 55.79 54.8904 53.34 57.1903 50.86L60.6504 46.9C62.1204 45.09 63.2403 43.5 63.9403 42.22C65.1503 39.99 65.9604 37.06 65.9604 34.92C65.9604 32.78 65.1804 30.76 63.7704 29.25C62.3904 27.78 60.5704 26.97 58.6404 26.97C56.7104 26.97 54.8903 27.78 53.5103 29.25C53.0003 29.79 52.5604 30.43 52.2004 31.14C51.8604 31.81 51.1704 32.24 50.4104 32.24C49.6604 32.24 48.9704 31.81 48.6304 31.14C48.2704 30.43 47.8304 29.79 47.3204 29.25C45.9404 27.78 44.1203 26.97 42.1903 26.97C40.2603 26.97 38.4404 27.78 37.0604 29.25C35.6504 30.76 34.8703 32.78 34.8703 34.92C34.8703 37.06 35.6804 39.99 36.8904 42.22C37.7604 43.82 39.3504 45.97 41.4704 48.44L47.5204 54.82L47.5103 54.83Z" fill="#004666"/>
</g>
<defs>
<clipPath id="clip0_1957_18798">
<rect width="96" height="96" fill="white"/>
</clipPath>
</defs>
</svg>
