<svg width="96" height="96" viewBox="0 0 96 96" fill="none" xmlns="http://www.w3.org/2000/svg">
<path d="M68.6504 31.66C67.5204 28.99 65.9104 26.59 63.8503 24.54C61.7903 22.48 59.4004 20.87 56.7304 19.74C53.9704 18.57 51.0303 17.98 48.0103 17.98C44.9903 17.98 42.0504 18.57 39.2904 19.74C36.6204 20.87 34.2203 22.48 32.1703 24.54C30.1103 26.6 28.5004 28.99 27.3704 31.66C26.2004 34.42 25.6104 37.36 25.6104 40.38C25.6104 43.07 26.0404 45.43 27.0204 48.02C27.9004 50.36 29.1504 52.71 30.7304 55.68C31.3504 56.85 31.9903 58.05 32.6903 59.41C33.7903 61.54 34.3204 64.22 34.5704 66.09C34.6404 66.61 34.7003 67.13 34.7603 67.63C34.9703 69.38 35.1704 71.03 35.6304 72.32C35.9404 73.2 36.3604 73.87 36.9004 74.38C37.6004 75.03 38.4904 75.38 39.4704 75.38H56.5604C57.5404 75.38 58.4304 75.04 59.1304 74.38C59.6704 73.87 60.0904 73.2 60.4004 72.32C60.8604 71.03 61.0604 69.38 61.2704 67.63C61.3304 67.13 61.3904 66.61 61.4604 66.09C61.7104 64.22 62.2404 61.54 63.3404 59.41C64.0404 58.05 64.6804 56.85 65.3004 55.68C66.8804 52.71 68.1304 50.36 69.0104 48.02C69.9804 45.43 70.4203 43.08 70.4203 40.38C70.4203 37.36 69.8304 34.42 68.6604 31.66H68.6504Z" fill="#00AEEF"/>
<path d="M33.4296 47.5699C32.7596 47.5699 32.1496 47.1199 31.9796 46.4399C31.5896 44.8999 31.3896 43.3099 31.3896 41.7099C31.3896 39.5199 31.7597 37.3799 32.4897 35.3299C33.1897 33.3499 34.2096 31.5199 35.5296 29.8699C36.8296 28.2399 38.3696 26.8399 40.1196 25.7099C41.8996 24.5599 43.8497 23.7199 45.8997 23.2199C46.7097 23.0199 47.5196 23.5199 47.7096 24.3199C47.9096 25.1199 47.4096 25.9399 46.6096 26.1299C44.8797 26.5499 43.2397 27.2599 41.7397 28.2199C40.2697 29.1699 38.9596 30.3499 37.8696 31.7199C36.7696 33.1099 35.9097 34.6499 35.3097 36.3199C34.6997 38.0399 34.3896 39.8499 34.3896 41.6899C34.3896 43.0399 34.5596 44.3799 34.8896 45.6799C35.0996 46.4799 34.6097 47.2999 33.8097 47.5099C33.6897 47.5399 33.5596 47.5599 33.4396 47.5599L33.4296 47.5699Z" fill="white"/>
<path d="M57.1196 82.1899H38.8896C37.7896 82.1899 36.8896 81.2899 36.8896 80.1899C36.8896 79.0899 37.7896 78.1899 38.8896 78.1899H57.1196C58.2196 78.1899 59.1196 79.0899 59.1196 80.1899C59.1196 81.2899 58.2196 82.1899 57.1196 82.1899Z" fill="#004666"/>
<path d="M56.3104 89.0498H39.6904C38.5904 89.0498 37.6904 88.1498 37.6904 87.0498C37.6904 85.9498 38.5904 85.0498 39.6904 85.0498H56.3104C57.4104 85.0498 58.3104 85.9498 58.3104 87.0498C58.3104 88.1498 57.4104 89.0498 56.3104 89.0498Z" fill="#004666"/>
<path d="M52.5604 95.9199H43.4404C42.3404 95.9199 41.4404 95.0199 41.4404 93.9199C41.4404 92.8199 42.3404 91.9199 43.4404 91.9199H52.5604C53.6604 91.9199 54.5604 92.8199 54.5604 93.9199C54.5604 95.0199 53.6604 95.9199 52.5604 95.9199Z" fill="#004666"/>
<path d="M47.9902 10.5201C46.8902 10.5201 45.9902 9.62008 45.9902 8.52008V2.08008C45.9902 0.980078 46.8902 0.0800781 47.9902 0.0800781C49.0902 0.0800781 49.9902 0.980078 49.9902 2.08008V8.51008C49.9902 9.61008 49.0902 10.5101 47.9902 10.5101V10.5201Z" fill="#80D7F7"/>
<path d="M32.0298 14.8002C31.3398 14.8002 30.6698 14.4402 30.2998 13.8002L27.0798 8.23024C26.5298 7.27024 26.8598 6.05024 27.8098 5.50024C28.7698 4.95024 29.9898 5.28024 30.5398 6.23024L33.7598 11.8002C34.3098 12.7602 33.9798 13.9802 33.0298 14.5302C32.7198 14.7102 32.3698 14.8002 32.0298 14.8002Z" fill="#80D7F7"/>
<path d="M20.34 26.49C20 26.49 19.66 26.4 19.34 26.22L13.77 23C12.81 22.45 12.49 21.22 13.04 20.27C13.59 19.31 14.82 18.99 15.77 19.54L21.34 22.76C22.3 23.31 22.62 24.54 22.07 25.49C21.7 26.13 21.03 26.49 20.34 26.49Z" fill="#80D7F7"/>
<path d="M16.0696 42.46H9.63965C8.53965 42.46 7.63965 41.56 7.63965 40.46C7.63965 39.36 8.53965 38.46 9.63965 38.46H16.0696C17.1696 38.46 18.0696 39.36 18.0696 40.46C18.0696 41.56 17.1696 42.46 16.0696 42.46Z" fill="#80D7F7"/>
<path d="M14.7903 61.6402C14.1003 61.6402 13.4303 61.2802 13.0603 60.6402C12.5103 59.6802 12.8403 58.4602 13.7903 57.9102L19.3603 54.6902C20.3203 54.1402 21.5403 54.4702 22.0903 55.4202C22.6403 56.3802 22.3103 57.6002 21.3603 58.1502L15.7903 61.3702C15.4803 61.5502 15.1303 61.6402 14.7903 61.6402Z" fill="#80D7F7"/>
<path d="M81.2297 61.6102C80.8897 61.6102 80.5497 61.5202 80.2297 61.3402L74.6597 58.1202C73.6997 57.5702 73.3797 56.3402 73.9297 55.3902C74.4797 54.4302 75.6997 54.1002 76.6597 54.6602L82.2297 57.8802C83.1897 58.4302 83.5097 59.6602 82.9597 60.6102C82.5897 61.2502 81.9197 61.6102 81.2297 61.6102Z" fill="#80D7F7"/>
<path d="M86.3704 42.4302H79.9404C78.8404 42.4302 77.9404 41.5302 77.9404 40.4302C77.9404 39.3302 78.8404 38.4302 79.9404 38.4302H86.3704C87.4704 38.4302 88.3704 39.3302 88.3704 40.4302C88.3704 41.5302 87.4704 42.4302 86.3704 42.4302Z" fill="#80D7F7"/>
<path d="M75.6497 26.4698C74.9597 26.4698 74.2897 26.1098 73.9197 25.4698C73.3697 24.5098 73.6997 23.2898 74.6497 22.7398L80.2197 19.5198C81.1797 18.9698 82.3997 19.2998 82.9497 20.2498C83.4997 21.2098 83.1697 22.4298 82.2197 22.9798L76.6497 26.1998C76.3397 26.3798 75.9897 26.4698 75.6497 26.4698Z" fill="#80D7F7"/>
<path d="M63.9497 14.78C63.6097 14.78 63.2697 14.69 62.9497 14.51C61.9897 13.96 61.6697 12.73 62.2197 11.78L65.4397 6.21001C65.9897 5.25001 67.2197 4.92001 68.1697 5.48001C69.1197 6.04001 69.4497 7.26001 68.8997 8.21001L65.6797 13.78C65.3097 14.42 64.6397 14.78 63.9497 14.78Z" fill="#80D7F7"/>
</svg>
