<svg width="96" height="96" viewBox="0 0 96 96" fill="none" xmlns="http://www.w3.org/2000/svg">
<path d="M91.5303 73.08V18.83C91.5303 16.02 89.1203 13.75 86.1403 13.75L10.1603 13.77C7.18028 13.77 4.77029 16.04 4.77029 18.85V73.09H0.200285C0.180285 79.22 3.50029 82.26 10.8503 82.26H85.1503C92.5003 82.26 95.8203 79.22 95.8003 73.09H91.5303V73.08ZM84.8903 73.07H11.1103V19.86H84.9003V73.07H84.8903Z" fill="#80D7F7"/>
<path d="M84.9004 19.8599H11.1104V73.0699H84.9004V19.8599Z" fill="white"/>
<path d="M65.5502 49.0502V43.3502L61.3202 42.0002L60.3902 39.7602L62.4302 35.8202C61.0802 34.4802 59.7402 33.1302 58.3902 31.7802L54.4502 33.8202L52.2102 32.8902L50.8602 28.6602H45.1602L43.8102 32.8902L41.5702 33.8202L37.6202 31.7802C36.2702 33.1302 34.9302 34.4702 33.5802 35.8202L35.6102 39.7602L34.6802 42.0002L30.4502 43.3502C30.4502 45.2502 30.4502 47.1502 30.4502 49.0502L34.6802 50.4002L35.6102 52.6402L33.5702 56.5902C34.9202 57.9402 36.2602 59.2802 37.6102 60.6302L41.5602 58.6002L43.8002 59.5302L45.1502 63.7602C47.0502 63.7602 48.9502 63.7602 50.8502 63.7602L52.2002 59.5302L54.4402 58.6002L58.3802 60.6402C59.7302 59.2902 61.0702 57.9502 62.4202 56.6002L60.3802 52.6502L61.3102 50.4102L65.5402 49.0602L65.5502 49.0502ZM48.0002 52.3502C44.6002 52.3502 41.8402 49.5902 41.8402 46.2002C41.8402 42.8102 44.6002 40.0502 48.0002 40.0502C51.4002 40.0502 54.1502 42.8102 54.1502 46.2002C54.1502 49.5902 51.4002 52.3502 48.0002 52.3502Z" fill="#00AEEF"/>
<path d="M53.4997 49.44C52.4097 51.24 50.4397 52.44 48.1797 52.44C44.7497 52.44 41.9697 49.66 41.9697 46.23C41.9697 42.8 44.7497 40.02 48.1797 40.02" stroke="#004666" stroke-width="4" stroke-linecap="round" stroke-linejoin="round"/>
</svg>
