<svg width="96" height="96" viewBox="0 0 96 96" fill="none" xmlns="http://www.w3.org/2000/svg">
<g clip-path="url(#clip0_1634_30746)">
<path d="M57.2922 66.6391V87.9925C57.2922 88.8555 58.2919 89.3371 58.9617 88.7852L64.8198 83.9586L71.8177 95.5184C72.1076 96 72.7274 96.1505 73.2072 95.8696L77.7258 93.1904C78.2157 92.8994 78.3756 92.2672 78.0757 91.7755L71.0779 80.2459L77.7058 78.3694C78.5456 78.1286 78.7255 77.0047 77.9857 76.5231L60.4312 64.9433C59.0716 64.0502 57.2622 65.0235 57.2622 66.6592L57.2922 66.6391Z" fill="#00AEEF"/>
<path d="M96 18.3932V4.10411C96 1.83631 94.1706 0 91.9113 0H4.08872C1.82943 0 0 1.83631 0 4.10411V18.3932H96Z" fill="#004666"/>
<path d="M0 18.3931V74.0644C0 76.3322 1.82943 78.1685 4.08872 78.1685H53.2534V66.6389C53.2534 63.2673 55.9825 60.5279 59.3415 60.5279C60.5211 60.5279 61.6807 60.8791 62.6804 61.5313L80.2349 73.1112C81.9144 74.215 82.7641 76.1416 82.4542 78.1384V78.1585H91.9213C94.1806 78.1585 96.01 76.3222 96.01 74.0544V18.3931H0Z" fill="#80D7F7"/>
<path d="M21.6733 42.9175H12.3862" stroke="white" stroke-width="4" stroke-miterlimit="10" stroke-linecap="round"/>
<path d="M21.6733 30.6553H12.3862" stroke="white" stroke-width="4" stroke-miterlimit="10" stroke-linecap="round"/>
<path d="M49.5544 62.8359H30.9702V68.967H49.5544V62.8359Z" fill="white"/>
<path d="M83.6138 39.8472H30.9702V56.7051H83.6138V39.8472Z" fill="white"/>
<path d="M83.6138 27.585H30.9702V33.716H83.6138V27.585Z" fill="white"/>
<path d="M37.1585 9.19138C37.1585 10.8872 35.7689 12.2619 34.0595 12.2619C32.35 12.2619 30.9604 10.8872 30.9604 9.19138C30.9604 7.49555 32.35 6.13086 34.0595 6.13086C35.7689 6.13086 37.1585 7.50558 37.1585 9.19138Z" fill="white"/>
<path d="M26.3216 9.19138C26.3216 10.8872 24.932 12.2619 23.2226 12.2619C21.5131 12.2619 20.1235 10.8872 20.1235 9.19138C20.1235 7.49555 21.5131 6.13086 23.2226 6.13086C24.932 6.13086 26.3216 7.50558 26.3216 9.19138Z" fill="white"/>
<path d="M15.4852 9.19138C15.4852 10.8872 14.0956 12.2619 12.3861 12.2619C10.6767 12.2619 9.28711 10.8872 9.28711 9.19138C9.28711 7.49555 10.6767 6.13086 12.3861 6.13086C14.0956 6.13086 15.4852 7.50558 15.4852 9.19138Z" fill="white"/>
</g>
<defs>
<clipPath id="clip0_1634_30746">
<rect width="96" height="96" fill="white"/>
</clipPath>
</defs>
</svg>
