<svg width="96" height="96" viewBox="0 0 96 96" fill="none" xmlns="http://www.w3.org/2000/svg">
<g clip-path="url(#clip0_1634_38418)">
<path d="M57.0217 60.6939C56.8806 60.684 56.7496 60.6543 56.6086 60.6543H31.513C31.513 60.6543 31.513 60.6642 31.5029 60.6642C31.5029 60.6642 31.5231 60.6741 31.5231 60.684H56.6086C56.7496 60.6741 56.8806 60.684 57.0217 60.684V60.6939Z" fill="#004666"/>
<path d="M45.9395 73.5713V73.5812H54.2308L54.2409 73.5713H45.9395Z" fill="#004666"/>
<path d="M56.6087 56.6953C60.8703 56.6953 64.3963 59.7636 65.0613 63.7623C77.0398 53.3696 91.5774 40.2054 91.8897 23.9432C91.8897 11.2641 82.1275 1 70.0784 1C61.1322 1 53.4453 6.67148 50.0905 14.7877C46.7256 6.67148 39.0489 1 30.1027 1C18.0536 1 8.22087 11.274 8.29139 23.9432C8.37199 36.8995 17.701 47.9159 27.5942 57.1209C28.8736 56.8437 30.1934 56.6953 31.5131 56.6953H56.6087Z" fill="#004666"/>
<path d="M95.4963 63.5642C94.1161 60.288 90.2978 59.8525 86.9632 61.2085L60.6788 72.5415C60.306 72.7395 59.903 72.9078 59.5001 73.0463L58.2609 73.5808H54.2311C52.3472 75.5307 50.8863 77.3519 50.0905 79.0246C49.2946 77.3519 47.8338 75.5307 45.9398 73.5808H36.9231H45.9297C45.9297 73.5808 45.9095 73.561 45.9095 73.5511H36.1473C35.0391 73.5511 34.1324 72.6603 34.1324 71.5715C34.1324 70.4828 35.0391 69.592 36.1473 69.592H41.7387C38.6962 66.8602 35.15 63.9007 31.5231 60.6938H31.5131C30.8179 60.6938 30.1329 60.7433 29.4478 60.8225C27.6243 61.0798 25.8613 61.6836 24.2695 62.5942L0.272012 75.9662C0.181341 76.0157 0.0906706 76.0454 0 76.0751L9.63123 94.9998L25.7202 87.4675C27.2515 86.5668 28.9944 86.0917 30.7877 86.0917H56.5684C58.7646 86.0917 60.9508 85.6562 62.9758 84.8149L91.9803 71.1261C95.3149 69.7701 96.8765 66.8404 95.4963 63.5642Z" fill="#00AEEF"/>
<path d="M61.1526 65.1185C61.1526 62.7925 59.3291 60.902 57.022 60.6941C56.881 60.6941 56.75 60.6743 56.609 60.6743H31.5234C35.1503 63.8911 38.6965 66.8605 41.739 69.5923H56.5989C59.1074 69.5923 61.1425 67.5929 61.1425 65.1284L61.1526 65.1185Z" fill="#00AEEF"/>
<path d="M54.2609 73.5513H45.9092C45.9092 73.5513 45.9293 73.5711 45.9293 73.581H54.2307C54.2307 73.581 54.2408 73.5612 54.2509 73.5513H54.2609Z" fill="#00AEEF"/>
<path d="M50.0902 79.0249C50.886 77.3521 52.3368 75.5309 54.2308 73.5811H45.9395C47.8335 75.5408 49.2943 77.3521 50.0902 79.0249Z" fill="#00AEEF"/>
<path d="M48.6091 48.5095C47.8737 48.5095 47.1886 48.1037 46.8562 47.4505L41.0432 36.1471L38.4339 40.3735C38.0813 40.9476 37.4365 41.3039 36.7514 41.3039H26.3747C25.2866 41.3039 24.4102 40.4428 24.4102 39.3738C24.4102 38.3048 25.2866 37.4437 26.3747 37.4437H35.6432L39.5118 31.1685C39.8846 30.5647 40.5495 30.2084 41.2648 30.2381C41.9801 30.2678 42.6249 30.6736 42.9473 31.2971L48.2867 41.6899L55.6411 21.429C55.9131 20.6767 56.6284 20.1719 57.4344 20.1422C58.2504 20.1324 58.9859 20.5877 59.2982 21.3201L66.1992 37.4338H73.7853C74.8734 37.4338 75.7499 38.2949 75.7499 39.3639C75.7499 40.4329 74.8734 41.294 73.7853 41.294H64.8895C64.0937 41.294 63.3884 40.8288 63.0761 40.1161L57.6258 27.4073L50.4326 47.2228C50.1707 47.9552 49.4856 48.4501 48.6998 48.4996C48.6595 48.4996 48.6192 48.4996 48.5789 48.4996L48.6091 48.5095Z" fill="white"/>
</g>
<defs>
<clipPath id="clip0_1634_38418">
<rect width="96" height="94" fill="white" transform="translate(0 1)"/>
</clipPath>
</defs>
</svg>
