<svg xmlns="http://www.w3.org/2000/svg" viewBox="0 0 20 16" fill="currentColor">
  <path d="M18.1187 8.36559C19.8843 6.59997 19.8843 3.74059 18.1187 1.97497C16.5562 0.412466 14.0937 0.209341 12.2969 1.49372L12.2469 1.52809C11.7969 1.84997 11.6937 2.47497 12.0156 2.92184C12.3375 3.36872 12.9625 3.47497 13.4094 3.15309L13.4594 3.11872C14.4625 2.40309 15.8344 2.51559 16.7031 3.38747C17.6875 4.37184 17.6875 5.96559 16.7031 6.94997L13.1968 10.4625C12.2125 11.4468 10.6187 11.4468 9.63435 10.4625C8.76248 9.59059 8.64998 8.21872 9.3656 7.21872L9.39997 7.16872C9.72185 6.71872 9.6156 6.09372 9.16873 5.77497C8.72185 5.45622 8.09373 5.55934 7.77498 6.00622L7.7406 6.05622C6.4531 7.84997 6.65623 10.3125 8.21873 11.875C9.98435 13.6406 12.8437 13.6406 14.6094 11.875L18.1187 8.36559ZM1.88123 7.63434C0.115601 9.39997 0.115601 12.2593 1.88123 14.025C3.44373 15.5875 5.90623 15.7906 7.7031 14.5062L7.7531 14.4718C8.2031 14.15 8.30623 13.525 7.98435 13.0781C7.66248 12.6312 7.03748 12.525 6.5906 12.8468L6.5406 12.8812C5.53748 13.5968 4.1656 13.4843 3.29685 12.6125C2.31248 11.625 2.31248 10.0312 3.29685 9.04684L6.8031 5.53747C7.78748 4.55309 9.38123 4.55309 10.3656 5.53747C11.2375 6.40934 11.35 7.78122 10.6343 8.78434L10.6 8.83434C10.2781 9.28434 10.3844 9.90934 10.8312 10.2281C11.2781 10.5468 11.9062 10.4437 12.225 9.99684L12.2593 9.94684C13.5469 8.14997 13.3437 5.68747 11.7812 4.12497C10.0156 2.35934 7.15623 2.35934 5.3906 4.12497L1.88123 7.63434Z"/>
</svg>
