<svg width="160" height="25" viewBox="0 0 160 25" fill="none" xmlns="http://www.w3.org/2000/svg">
<g clip-path="url(#clip0_1116_74758)">
<path d="M6.55684 17.7866H0.534239C0.167245 17.7866 0 17.5188 0 17.3533V8.04554C0 7.67976 0.167245 7.67976 0.63175 7.67976H6.65435C7.09108 7.67976 7.09108 7.67976 7.09108 7.24646V1.49849C7.09108 0.864976 7.09108 0.864976 7.56032 0.864976H16.6595C17.0957 0.864976 17.0957 0.962439 17.0957 1.49849V7.24646C17.0957 7.67976 17.0957 7.67976 17.5655 7.67976H23.7878C24.1223 7.67976 24.1223 7.67976 24.1223 8.04554V16.9875C24.2198 17.4548 24.1223 17.7866 23.7878 17.7866H17.5661C17.0963 17.7866 17.0963 17.4548 17.0963 18.1518V24.5004C17.0963 24.6014 17.1944 24.7998 16.7293 24.7998H7.09167C6.75718 24.7998 6.75718 24.6014 6.75718 24.5004V18.1518C6.75659 17.7866 6.75659 17.7866 6.55684 17.7866ZM30.4788 3.15888H32.0514L31.2489 1.76328L30.4788 3.15888ZM29.6089 4.82163H28.271L30.4788 0.799805H32.0845L34.2599 4.82163H32.8876L32.4864 4.12353H30.0102L29.6089 4.82163ZM35.9985 3.85756H38.675V4.82163H34.7279V0.799805H35.9985V3.85756ZM42.7563 3.92332C42.8568 3.92332 42.9566 3.88986 42.9903 3.8241C43.0571 3.75716 43.0902 3.65735 43.0902 3.52525C43.0902 3.42485 43.0571 3.32563 42.9903 3.25869C42.9566 3.19176 42.8568 3.15888 42.7563 3.15888H40.4816V3.92332H42.7563ZM42.6558 2.36215C42.7563 2.36215 42.8231 2.32868 42.8899 2.26234C42.9235 2.22946 42.9566 2.12965 42.9566 2.02984C42.9566 1.93002 42.9229 1.86368 42.8899 1.79733C42.8231 1.73099 42.7226 1.69752 42.6558 1.69752H40.4816V2.36274L42.6558 2.36215ZM43.0908 4.82163H39.2105V0.799805H42.8904C43.3254 0.799805 43.6599 0.86615 43.8945 1.06577C44.1291 1.2654 44.229 1.53137 44.229 1.89715C44.229 2.12965 44.1959 2.29639 44.0954 2.42908C43.9754 2.58316 43.8125 2.69873 43.6268 2.7614C43.8945 2.79428 44.0618 2.89409 44.1959 3.06024C44.2958 3.2264 44.3637 3.42661 44.3637 3.72546C44.3637 4.12471 44.2627 4.39009 44.0623 4.55625C43.862 4.7224 43.5257 4.82163 43.0908 4.82163ZM49.5141 1.7304H46.3358V2.39503H49.3137V3.22581H46.3358V3.85756H49.5472V4.82163H45.0646V0.799805H49.5141V1.7304ZM53.4618 1.79675H51.521V2.79369H53.4618C53.6296 2.79369 53.7626 2.72793 53.8299 2.661C53.8973 2.59407 53.9298 2.46196 53.9298 2.26175C53.9298 2.09559 53.8961 1.9629 53.7963 1.89597C53.7295 1.82963 53.6296 1.79675 53.4618 1.79675ZM53.5291 0.799805C54.165 0.799805 54.6 0.899029 54.834 1.06577C55.068 1.2654 55.1685 1.59712 55.1685 2.09618C55.1685 2.46255 55.1348 2.72852 55.0343 2.89409C54.9339 3.05966 54.7335 3.16064 54.4989 3.2264C54.7335 3.29275 54.8671 3.35909 55.0013 3.49237C55.1017 3.62565 55.1354 3.79122 55.1354 3.99143V4.8228H53.8973V4.19046C53.8973 4.0566 53.8636 3.92391 53.7974 3.85756C53.7307 3.8241 53.5634 3.79122 53.3625 3.79122H51.5222V4.82221H50.2516V0.800392L53.5291 0.799805ZM58.6476 4.82163H57.3764V1.7304H55.6696V0.799805H60.3537V1.7304H58.6476V4.82163ZM62.0598 3.15888H63.6324L62.8293 1.76328L62.0598 3.15888ZM61.1905 4.82163H59.852L62.0604 0.799805H63.6655L65.8403 4.82163H64.4686L64.0668 4.12353H61.5912L61.1905 4.82163ZM36.8017 15.4586C37.0694 15.4586 37.2703 15.3917 37.4039 15.2255C37.5711 15.06 37.6379 14.8274 37.6379 14.5609C37.638 14.3196 37.5555 14.0854 37.4039 13.8969C37.2703 13.763 37.0694 13.6632 36.8017 13.6632H31.3151V15.4592L36.8017 15.4586ZM36.5339 11.7033C36.8017 11.7033 36.9689 11.637 37.1031 11.5037C37.2372 11.3704 37.3034 11.1714 37.3034 10.9054C37.3034 10.6729 37.2366 10.4733 37.1031 10.34C36.9515 10.1911 36.7471 10.1076 36.5339 10.1075H31.3151V11.7033H36.5339ZM37.5711 17.6527H28.2373V7.91403H37.1361C38.207 7.91403 39.0101 8.14653 39.5455 8.57924C40.081 9.04425 40.3818 9.70887 40.3818 10.6395C40.3818 11.1385 40.2482 11.5701 40.0136 11.9024C39.779 12.2347 39.4114 12.5007 38.9102 12.6674C39.5461 12.7666 39.9811 13.0326 40.2482 13.399C40.5496 13.7636 40.6826 14.2955 40.6826 15.0265C40.6826 15.9236 40.4485 16.6223 39.9468 17.021C39.4445 17.4531 38.675 17.6527 37.5711 17.6527ZM45.567 15.3594H51.9897V17.6527H42.5223V7.91403H45.567V15.3594ZM53.2945 7.91403H56.3723V13.6978C56.3723 14.3619 56.5065 14.7934 56.8073 15.0265C57.1081 15.2267 57.744 15.3594 58.7474 15.3594H60.3862C61.223 15.3594 61.7915 15.2261 62.0592 14.9936C62.327 14.7611 62.4611 14.3284 62.4611 13.6978V7.91403H65.5389V14.5944C65.5389 15.7575 65.2044 16.5554 64.6016 17.0538C63.9657 17.5194 62.8618 17.7513 61.3235 17.7513H58.0454C56.2388 17.7513 55.0013 17.5188 54.3317 17.0861C53.6627 16.6205 53.2945 15.7903 53.2945 14.5938V7.91403ZM78.1845 10.2073H70.5237V11.8026H77.7496V13.7965H70.5237V15.3594H78.3187V17.6527H67.446V7.91403H78.1845V10.2073ZM95.8818 11.2706V11.1714C95.8818 10.8056 95.7819 10.5397 95.5142 10.3741C95.2802 10.2079 94.8446 10.1081 94.3098 10.1081H91.9341C90.93 10.1081 90.2611 10.2414 89.9939 10.4739C89.6925 10.7393 89.5596 11.2378 89.5596 12.0357V13.4653C89.5596 14.1969 89.7256 14.6959 90.027 14.9619C90.3615 15.2273 90.998 15.3606 91.9347 15.3606H93.6745C94.6106 15.3606 95.2465 15.2607 95.5473 15.0605C95.8156 14.8615 95.9823 14.5292 95.9823 13.9973V13.8974H99.027V13.9638C99.0518 14.1732 99.063 14.3841 99.0606 14.5949C99.0606 15.2267 98.9602 15.7258 98.8266 16.1238C98.6594 16.5554 98.3917 16.8542 98.0566 17.1214C97.7552 17.3539 97.3208 17.52 96.7854 17.6204C96.25 17.7208 95.4811 17.7525 94.444 17.7525H91.0991C90.095 17.7525 89.3261 17.7191 88.8569 17.5864C88.3889 17.4865 87.9533 17.321 87.6182 17.055C87.2365 16.7445 86.9379 16.3452 86.7489 15.8925C86.5817 15.461 86.4812 14.895 86.4812 14.1969V11.4051C86.4812 10.0424 86.8157 9.0783 87.4853 8.51348C88.1542 7.98213 89.3586 7.71558 91.0985 7.71558H94.4434C95.5142 7.71558 96.3168 7.74904 96.8185 7.84827C97.3202 7.94749 97.7215 8.11424 98.0223 8.31327C98.3243 8.54636 98.5583 8.87868 98.725 9.27734C98.8591 9.6437 98.9259 10.1428 98.9259 10.7405V11.2724H95.8818V11.2706ZM108.528 10.34H103.811V12.7332H108.528C108.929 12.7332 109.197 12.6334 109.364 12.4672C109.498 12.2682 109.598 11.9353 109.598 11.4368C109.598 11.0381 109.498 10.7722 109.331 10.6054C109.163 10.407 108.896 10.34 108.528 10.34ZM108.628 7.91403C110.2 7.91403 111.238 8.14653 111.806 8.61212C112.375 9.07771 112.642 9.9085 112.642 11.1051C112.642 11.9364 112.541 12.567 112.274 12.9997C112.04 13.3996 111.605 13.6649 111.004 13.7976C111.538 13.9297 111.906 14.1622 112.174 14.4623C112.443 14.7623 112.576 15.1598 112.576 15.6588V17.6533H109.565V16.1567C109.565 15.7921 109.465 15.4921 109.297 15.36C109.129 15.2279 108.761 15.1269 108.226 15.1269H103.811V17.6539H100.732V7.91403H108.628ZM119.167 17.7525C118.029 17.7525 117.16 17.7191 116.657 17.6192C116.123 17.486 115.688 17.3204 115.353 17.0873C114.985 16.789 114.684 16.4227 114.549 15.9905C114.382 15.5255 114.282 14.9267 114.282 14.1963V11.4703C114.282 10.6395 114.382 10.0077 114.549 9.54272C114.684 9.04366 114.985 8.67847 115.353 8.4125C115.688 8.14653 116.123 7.98096 116.657 7.88056C117.193 7.74728 118.029 7.7144 119.132 7.7144H122.679C123.782 7.7144 124.619 7.74728 125.188 7.88056C125.722 7.98037 126.158 8.14653 126.492 8.37903C126.861 8.67847 127.128 9.04366 127.296 9.50925C127.463 10.0077 127.563 10.6066 127.563 11.3376V14.1299C127.563 14.8597 127.463 15.4909 127.296 15.9571C127.139 16.4011 126.861 16.7927 126.492 17.0873C126.158 17.3198 125.722 17.486 125.188 17.5858C124.653 17.7191 123.816 17.7519 122.679 17.7519L119.167 17.7525ZM119.97 15.3594H121.877C122.913 15.3594 123.649 15.2261 123.984 14.9607C124.318 14.6607 124.486 14.1622 124.486 13.4313V12.0351C124.486 11.3035 124.318 10.805 123.984 10.5391C123.649 10.2396 122.913 10.1069 121.877 10.1069H119.97C118.898 10.1069 118.162 10.2396 117.828 10.5391C117.494 10.805 117.326 11.337 117.326 12.1008V13.4641C117.326 14.1957 117.527 14.6948 117.86 14.9607C118.229 15.2267 118.932 15.3594 119.97 15.3594ZM129.203 14.3953H132.146V14.5949C132.146 14.9613 132.247 15.2267 132.413 15.36C132.614 15.4933 133.016 15.559 133.584 15.559H137.365C137.733 15.559 137.967 15.4933 138.135 15.36C138.302 15.2267 138.369 15.0271 138.369 14.7288C138.369 14.3959 138.268 14.1969 138.101 14.063C137.934 13.9291 137.532 13.8305 136.93 13.797L132.213 13.6984C131.042 13.6638 130.239 13.4318 129.837 13.0003C129.402 12.6011 129.202 11.836 129.202 10.7733C129.202 10.2085 129.269 9.74293 129.369 9.37773C129.47 9.01254 129.671 8.71252 129.904 8.48002C130.172 8.18117 130.574 8.01501 131.009 7.88173C131.477 7.78251 132.246 7.71499 133.284 7.71499H137.867C139.005 7.71499 139.806 7.91461 140.276 8.34733C140.777 8.77886 141.045 9.44349 141.045 10.4076V10.6066C141.045 10.6729 141.011 10.8056 141.011 10.9389H138.167V10.906C138.167 10.5731 138.067 10.3406 137.9 10.1745C137.733 10.0083 137.498 9.9085 137.165 9.9085H133.685C133.117 9.9085 132.715 9.97484 132.547 10.0741C132.347 10.2073 132.246 10.407 132.246 10.7058C132.246 11.0047 132.347 11.2049 132.513 11.3382C132.68 11.4714 132.982 11.5372 133.451 11.5707L138.368 11.6699C139.506 11.7033 140.276 11.9364 140.743 12.402C141.211 12.8676 141.413 13.6649 141.413 14.794C141.413 15.4604 141.347 15.9905 141.179 16.3569C141.011 16.7233 140.711 17.0544 140.342 17.2875C140.075 17.4531 139.707 17.5864 139.272 17.6539C138.804 17.7191 138.168 17.7525 137.331 17.7525H133.284C131.645 17.7525 130.574 17.5864 130.005 17.2212C129.435 16.856 129.168 16.1908 129.168 15.1938V14.8944C129.169 14.7617 129.203 14.5949 129.203 14.3953ZM143.02 14.3953H145.963V14.5949C145.963 14.9613 146.063 15.2267 146.231 15.36C146.431 15.4933 146.833 15.559 147.401 15.559H151.181C151.55 15.559 151.784 15.4933 151.952 15.36C152.119 15.2267 152.186 15.0271 152.186 14.7288C152.186 14.3959 152.085 14.1969 151.918 14.063C151.751 13.9291 151.349 13.8305 150.747 13.797L146.031 13.6984C144.86 13.6638 144.056 13.4318 143.655 13.0003C143.22 12.6011 143.02 11.836 143.02 10.7733C143.02 10.2085 143.086 9.74293 143.187 9.37773C143.288 9.01254 143.488 8.71252 143.722 8.48002C143.989 8.18117 144.391 8.01501 144.825 7.88173C145.294 7.78251 146.063 7.71499 147.101 7.71499H151.684C152.822 7.71499 153.625 7.91461 154.093 8.34733C154.595 8.77886 154.863 9.44349 154.863 10.4076V10.6066C154.863 10.6729 154.828 10.8056 154.828 10.9389H151.985V10.906C151.985 10.5731 151.885 10.3406 151.717 10.1745C151.549 10.0083 151.316 9.9085 150.982 9.9085H147.502C146.934 9.9085 146.532 9.97484 146.365 10.0741C146.164 10.2073 146.064 10.407 146.064 10.7058C146.064 11.0047 146.164 11.2049 146.331 11.3382C146.499 11.4714 146.799 11.5372 147.268 11.5707L152.186 11.6699C153.324 11.7033 154.094 11.9364 154.561 12.402C155.029 12.8676 155.231 13.6649 155.231 14.794C155.231 15.4604 155.165 15.9905 154.997 16.3569C154.829 16.7233 154.528 17.0544 154.161 17.2875C153.893 17.4531 153.525 17.5864 153.09 17.6539C152.621 17.7191 151.986 17.7525 151.149 17.7525H147.101C145.462 17.7525 144.391 17.5864 143.823 17.2212C143.254 16.856 142.987 16.1908 142.987 15.1938V14.8944C142.986 14.7617 143.02 14.5949 143.02 14.3953ZM156.535 9.21745C156.535 8.32502 157.213 7.6551 158.082 7.6551C158.936 7.6551 159.621 8.32502 159.621 9.21745C159.621 10.1216 158.936 10.7868 158.082 10.7868C157.214 10.7874 156.535 10.1216 156.535 9.21745ZM158.082 11.0986C159.114 11.0986 160 10.306 160 9.21745C160 8.13537 159.114 7.34451 158.082 7.34451C157.037 7.34451 156.155 8.13596 156.155 9.21745C156.155 10.306 157.037 11.0986 158.082 11.0986ZM157.68 9.36775H158.062L158.64 10.306H159.008L158.389 9.3519C158.709 9.31256 158.953 9.14171 158.953 8.75303C158.953 8.32443 158.7 8.13479 158.183 8.13479H157.351V10.3054H157.681L157.68 9.36775ZM157.68 9.08711V8.41543H158.132C158.363 8.41543 158.609 8.46534 158.609 8.73424C158.609 9.06714 158.358 9.08711 158.078 9.08711H157.68Z" fill="#00AEEF"/>
</g>
<defs>
<clipPath id="clip0_1116_74758">
<rect width="160" height="24" fill="white" transform="translate(0 0.799805)"/>
</clipPath>
</defs>
</svg>
