<svg width="512" height="77" viewBox="0 0 512 77" fill="none" xmlns="http://www.w3.org/2000/svg">
<path d="M20.9819 54.4992H1.70957C0.535185 54.4992 0 53.6402 0 53.109V23.2467C0 22.0732 0.535185 22.0732 2.0216 22.0732H21.2939C22.6915 22.0732 22.6915 22.0732 22.6915 20.683V2.2416C22.6915 0.20909 22.6915 0.209091 24.193 0.209091H53.3105C54.7061 0.209091 54.7061 0.521785 54.7061 2.2416V20.683C54.7061 22.0732 54.7061 22.0732 56.2096 22.0732H76.1211C77.1915 22.0732 77.1915 22.0732 77.1915 23.2467V51.9355C77.5035 53.4349 77.1915 54.4992 76.1211 54.4992H56.2114C54.708 54.4992 54.708 53.4349 54.708 55.6709V76.0393C54.708 76.3633 55.0219 77 53.5336 77H22.6934C21.623 77 21.623 76.3633 21.623 76.0393V55.6709C21.6211 54.4992 21.6211 54.4992 20.9819 54.4992ZM97.5323 7.56871H102.565L99.9964 3.09115L97.5323 7.56871ZM94.7486 12.9033H90.4671L97.5323 0H102.67L109.632 12.9033H105.24L103.956 10.6636H96.0326L94.7486 12.9033ZM115.195 9.81031H123.76V12.9033H111.129V0H115.195V9.81031ZM136.82 10.0213C137.142 10.0213 137.461 9.91391 137.569 9.70294C137.783 9.4882 137.889 9.16797 137.889 8.74414C137.889 8.42202 137.783 8.10368 137.569 7.88894C137.461 7.67419 137.142 7.56871 136.82 7.56871H129.541V10.0213H136.82ZM136.499 5.01253C136.82 5.01253 137.034 4.90515 137.248 4.6923C137.355 4.58681 137.461 4.26658 137.461 3.94635C137.461 3.62612 137.353 3.41326 137.248 3.20041C137.034 2.98755 136.712 2.88018 136.499 2.88018H129.541V5.01441L136.499 5.01253ZM137.891 12.9033H125.473V0H137.249C138.641 0 139.712 0.212858 140.462 0.853316C141.213 1.49377 141.533 2.34709 141.533 3.52064C141.533 4.26658 141.427 4.80155 141.105 5.22727C140.721 5.72159 140.2 6.09239 139.606 6.29344C140.462 6.39893 140.998 6.71916 141.427 7.25224C141.746 7.78533 141.964 8.42767 141.964 9.38648C141.964 10.6674 141.641 11.5188 141 12.0519C140.358 12.585 139.282 12.9033 137.891 12.9033ZM158.445 2.98566H148.275V5.11801H157.804V7.78345H148.275V9.81031H158.551V12.9033H144.207V0H158.445V2.98566ZM171.078 3.19852H164.867V6.39704H171.078C171.615 6.39704 172.04 6.18607 172.256 5.97133C172.471 5.75659 172.575 5.33275 172.575 4.69041C172.575 4.15733 172.468 3.73161 172.148 3.51687C171.934 3.30401 171.615 3.19852 171.078 3.19852ZM171.293 0C173.328 0 174.72 0.318345 175.469 0.853316C176.218 1.49377 176.539 2.55806 176.539 4.15921C176.539 5.33464 176.431 6.18795 176.11 6.71916C175.788 7.25036 175.147 7.57436 174.397 7.78533C175.147 7.99819 175.575 8.21105 176.004 8.63865C176.326 9.06625 176.433 9.59745 176.433 10.2398V12.9071H172.471V10.8784C172.471 10.4489 172.364 10.0232 172.152 9.81031C171.938 9.70294 171.403 9.59745 170.76 9.59745H164.871V12.9052H160.805V0.0018837L171.293 0ZM187.672 12.9033H183.604V2.98566H178.143V0H193.132V2.98566H187.672V12.9033ZM198.591 7.56871H203.624L201.054 3.09115L198.591 7.56871ZM195.81 12.9033H191.526L198.593 0H203.73L210.689 12.9033H206.3L205.014 10.6636H197.092L195.81 12.9033ZM117.765 47.0303C118.622 47.0303 119.265 46.8156 119.692 46.2825C120.228 45.7513 120.441 45.0054 120.441 44.1502C120.442 43.3759 120.178 42.6246 119.692 42.0197C119.265 41.5902 118.622 41.27 117.765 41.27H100.208V47.0322L117.765 47.0303ZM116.909 34.9822C117.765 34.9822 118.3 34.7693 118.73 34.3417C119.159 33.9141 119.371 33.2756 119.371 32.4222C119.371 31.6763 119.157 31.0358 118.73 30.6082C118.245 30.1305 117.591 29.8625 116.909 29.8623H100.208V34.9822H116.909ZM120.228 54.0697H90.3593V22.8248H118.836C122.262 22.8248 124.832 23.5707 126.546 24.959C128.259 26.4509 129.222 28.5833 129.222 31.5689C129.222 33.1701 128.794 34.5546 128.044 35.6208C127.293 36.6869 126.116 37.5403 124.513 38.0752C126.548 38.3936 127.939 39.2469 128.794 40.4223C129.759 41.5921 130.184 43.2987 130.184 45.6439C130.184 48.5222 129.435 50.7638 127.83 52.0429C126.222 53.4293 123.76 54.0697 120.228 54.0697ZM145.814 46.712H166.367V54.0697H136.071V22.8248H145.814V46.712ZM170.542 22.8248H180.391V41.3811C180.391 43.5116 180.821 44.8961 181.783 45.6439C182.746 46.2863 184.781 46.712 187.992 46.712H193.236C195.914 46.712 197.733 46.2844 198.59 45.5384C199.446 44.7925 199.876 43.4042 199.876 41.3811V22.8248H209.724V44.2575C209.724 47.9891 208.654 50.5491 206.725 52.1483C204.69 53.6421 201.158 54.3862 196.235 54.3862H185.745C179.964 54.3862 176.004 53.6402 173.861 52.252C171.721 50.7582 170.542 48.0946 170.542 44.2556V22.8248ZM250.191 30.1825H225.676V35.3005H248.799V41.6976H225.676V46.712H250.62V54.0697H215.827V22.8248H250.191V30.1825ZM306.822 33.5939V33.2756C306.822 32.102 306.502 31.2487 305.646 30.7175C304.897 30.1844 303.503 29.8642 301.791 29.8642H294.189C290.976 29.8642 288.835 30.2918 287.981 31.0377C287.016 31.8892 286.591 33.4884 286.591 36.0484V40.6352C286.591 42.9823 287.122 44.5834 288.087 45.4367C289.157 46.2882 291.194 46.7158 294.191 46.7158H299.758C302.754 46.7158 304.789 46.3955 305.751 45.7532C306.61 45.1146 307.143 44.0484 307.143 42.3418V42.0216H316.886V42.2344C316.966 42.9064 317.002 43.5828 316.994 44.2594C316.994 46.2863 316.673 47.8874 316.245 49.1646C315.71 50.5491 314.853 51.5079 313.781 52.365C312.817 53.1109 311.427 53.644 309.713 53.9661C308 54.2882 305.54 54.39 302.221 54.39H291.517C288.304 54.39 285.844 54.2826 284.342 53.8569C282.844 53.5366 281.451 53.0054 280.378 52.1521C279.157 51.1559 278.201 49.8748 277.597 48.4224C277.061 47.0379 276.74 45.222 276.74 42.9823V34.0253C276.74 29.6532 277.81 26.5602 279.953 24.7481C282.094 23.0433 285.948 22.1881 291.515 22.1881H302.219C305.646 22.1881 308.214 22.2955 309.819 22.6138C311.425 22.9322 312.709 23.4671 313.671 24.1057C314.638 24.8535 315.387 25.9197 315.92 27.1987C316.349 28.3742 316.563 29.9753 316.563 31.8929V33.5996H306.822V33.5939ZM347.29 30.6082H332.197V38.2862H347.29C348.574 38.2862 349.43 37.966 349.966 37.4329C350.395 36.7943 350.715 35.7263 350.715 34.127C350.715 32.848 350.393 31.9946 349.86 31.4597C349.323 30.823 348.466 30.6082 347.29 30.6082ZM347.611 22.8248C352.642 22.8248 355.96 23.5707 357.78 25.0645C359.599 26.5583 360.456 29.2237 360.456 33.0627C360.456 35.73 360.132 37.7531 359.277 39.1414C358.529 40.4242 357.135 41.2756 355.212 41.7014C356.923 42.1252 358.099 42.8711 358.958 43.8337C359.816 44.7963 360.242 46.0715 360.242 47.6727V54.0716H350.607V49.2701C350.607 48.1003 350.287 47.1377 349.75 46.7139C349.213 46.29 348.037 45.966 346.323 45.966H332.195V54.0735H322.342V22.8248H347.611ZM381.334 54.39C377.693 54.39 374.911 54.2826 373.304 53.9624C371.592 53.5348 370.201 53.0035 369.128 52.2557C367.952 51.2988 366.988 50.1234 366.558 48.737C366.023 47.2451 365.702 45.3237 365.702 42.9804V34.2344C365.702 31.5689 366.023 29.5421 366.558 28.0502C366.989 26.449 367.952 25.2774 369.128 24.4241C370.201 23.5707 371.592 23.0395 373.304 22.7174C375.017 22.2898 377.693 22.1843 381.224 22.1843H392.572C396.103 22.1843 398.781 22.2898 400.602 22.7174C402.312 23.0377 403.705 23.5707 404.774 24.3167C405.956 25.2774 406.809 26.449 407.346 27.9428C407.881 29.5421 408.203 31.4634 408.203 33.8086V42.7675C408.203 45.109 407.881 47.1339 407.346 48.6296C406.846 50.0542 405.955 51.3106 404.774 52.2557C403.705 53.0017 402.312 53.5348 400.602 53.855C398.889 54.2826 396.213 54.3881 392.572 54.3881L381.334 54.39ZM383.904 46.712H390.006C393.323 46.712 395.678 46.2844 396.748 45.433C397.816 44.4704 398.355 42.8711 398.355 40.5259V36.0465C398.355 33.6994 397.818 32.1001 396.748 31.2468C395.678 30.2861 393.321 29.8604 390.006 29.8604H383.904C380.475 29.8604 378.119 30.2861 377.05 31.2468C375.98 32.1001 375.443 33.8068 375.443 36.2575V40.6314C375.443 42.9785 376.086 44.5796 377.152 45.433C378.334 46.2863 380.583 46.712 383.904 46.712ZM413.448 43.619H422.868V44.2594C422.868 45.4348 423.19 46.2863 423.723 46.7139C424.366 47.1415 425.652 47.3525 427.469 47.3525H439.569C440.745 47.3525 441.494 47.1415 442.031 46.7139C442.568 46.2863 442.78 45.6458 442.78 44.6889C442.78 43.6208 442.456 42.9823 441.923 42.5528C441.39 42.1233 440.104 41.8068 438.177 41.6995L423.082 41.383C419.335 41.2719 416.765 40.5278 415.479 39.1433C414.088 37.8624 413.447 35.4079 413.447 31.9984C413.447 30.1863 413.66 28.6925 413.982 27.5209C414.303 26.3492 414.946 25.3866 415.693 24.6407C416.55 23.6819 417.836 23.1488 419.228 22.7212C420.725 22.4028 423.188 22.1862 426.508 22.1862H441.176C444.814 22.1862 447.381 22.8267 448.882 24.215C450.488 25.5995 451.344 27.7318 451.344 30.8249V31.4634C451.344 31.6763 451.235 32.102 451.235 32.5296H442.135V32.4241C442.135 31.3561 441.813 30.6101 441.28 30.077C440.747 29.5439 439.994 29.2237 438.927 29.2237H427.791C425.973 29.2237 424.687 29.4366 424.15 29.7549C423.509 30.1825 423.186 30.823 423.186 31.7818C423.186 32.7406 423.509 33.3829 424.042 33.8105C424.576 34.2381 425.542 34.4491 427.042 34.5565L442.778 34.8748C446.42 34.9822 448.882 35.73 450.378 37.2238C451.874 38.7176 452.523 41.2756 452.523 44.898C452.523 47.036 452.309 48.737 451.772 49.9124C451.235 51.0878 450.276 52.1502 449.096 52.8981C448.241 53.4293 447.063 53.8569 445.669 54.0735C444.171 54.2826 442.137 54.39 439.459 54.39H426.508C421.262 54.39 417.836 53.8569 416.015 52.6852C414.194 51.5135 413.337 49.3793 413.337 46.1808V45.2201C413.341 44.7944 413.448 44.2594 413.448 43.619ZM457.663 43.619H467.082V44.2594C467.082 45.4348 467.402 46.2863 467.939 46.7139C468.58 47.1415 469.866 47.3525 471.683 47.3525H483.779C484.959 47.3525 485.708 47.1415 486.245 46.7139C486.782 46.2863 486.994 45.6458 486.994 44.6889C486.994 43.6208 486.672 42.9823 486.137 42.5528C485.602 42.1233 484.318 41.8068 482.391 41.6995L467.298 41.383C463.552 41.2719 460.98 40.5278 459.696 39.1433C458.304 37.8624 457.663 35.4079 457.663 31.9984C457.663 30.1863 457.874 28.6925 458.198 27.5209C458.521 26.3492 459.16 25.3866 459.909 24.6407C460.764 23.6819 462.052 23.1488 463.44 22.7212C464.94 22.4028 467.402 22.1862 470.723 22.1862H485.388C489.031 22.1862 491.599 22.8267 493.096 24.215C494.704 25.5995 495.561 27.7318 495.561 30.8249V31.4634C495.561 31.6763 495.451 32.102 495.451 32.5296H486.353V32.4241C486.353 31.3561 486.031 30.6101 485.494 30.077C484.957 29.5439 484.21 29.2237 483.142 29.2237H472.007C470.188 29.2237 468.903 29.4366 468.368 29.7549C467.725 30.1825 467.404 30.823 467.404 31.7818C467.404 32.7406 467.725 33.3829 468.26 33.8105C468.796 34.2381 469.758 34.4491 471.258 34.5565L486.996 34.8748C490.636 34.9822 493.1 35.73 494.596 37.2238C496.092 38.7176 496.739 41.2756 496.739 44.898C496.739 47.036 496.527 48.737 495.99 49.9124C495.453 51.0878 494.49 52.1502 493.314 52.8981C492.457 53.4293 491.279 53.8569 489.887 54.0735C488.388 54.2826 486.355 54.39 483.677 54.39H470.725C465.479 54.39 462.052 53.8569 460.233 52.6852C458.413 51.5135 457.559 49.3793 457.559 46.1808V45.2201C457.555 44.7944 457.663 44.2594 457.663 43.619ZM500.912 27.0066C500.912 24.1434 503.082 21.9941 505.861 21.9941C508.596 21.9941 510.786 24.1434 510.786 27.0066C510.786 29.9075 508.596 32.0417 505.861 32.0417C503.083 32.0436 500.912 29.9075 500.912 27.0066ZM505.861 33.042C509.165 33.042 512 30.499 512 27.0066C512 23.5349 509.165 20.9976 505.861 20.9976C502.518 20.9976 499.696 23.5368 499.696 27.0066C499.696 30.499 502.52 33.042 505.861 33.042ZM504.577 27.4888H505.799L507.649 30.499H508.827L506.845 27.438C507.87 27.3118 508.649 26.7636 508.649 25.5166C508.649 24.1415 507.84 23.5331 506.185 23.5331H503.522V30.4971H504.579L504.577 27.4888ZM504.577 26.5884V24.4335H506.022C506.762 24.4335 507.55 24.5936 507.55 25.4563C507.55 26.5244 506.747 26.5884 505.85 26.5884H504.577Z" fill="#0099D8"/>
</svg>
