<svg width="96" height="96" viewBox="0 0 96 96" fill="none" xmlns="http://www.w3.org/2000/svg">
<g clip-path="url(#clip0_1634_34791)">
<path d="M61.9566 91.7306C61.3608 91.9211 60.7649 92.0113 60.159 92.0113C58.9169 92.0113 57.705 91.6004 56.7254 90.8186C55.3419 89.7162 54.6248 88.0326 54.7965 86.3288C55.1197 83.1218 58.2503 73.9417 58.6644 72.8193C58.8966 72.1779 59.7349 71.2458 59.7449 71.2358L70.7325 59.9311V21.6273H53.3322C50.9085 21.6273 48.9392 19.673 48.9392 17.2678V0.0100098H5.393C2.96927 0.0100098 1 1.96428 1 4.37957V91.6404C1 94.0457 2.96927 96 5.393 96H66.3395C68.7632 96 70.7325 94.0457 70.7325 91.6404V88.8143C67.5009 89.8966 62.9362 91.43 61.9566 91.7407V91.7306Z" fill="#80D7F7"/>
<path d="M48.8379 0L70.7322 21.7275H53.2309C50.8072 21.7275 48.8379 19.7733 48.8379 17.368V0Z" fill="#00AEEF"/>
<path d="M25.439 13.5395H14.7747C13.6638 13.5395 12.7549 12.6376 12.7549 11.5351C12.7549 10.4327 13.6638 9.53076 14.7747 9.53076H25.439C26.5499 9.53076 27.4588 10.4327 27.4588 11.5351C27.4588 12.6376 26.5499 13.5395 25.439 13.5395Z" fill="#004666"/>
<path d="M25.7722 23.5815H14.9563C13.8454 23.5815 12.9365 22.6795 12.9365 21.5771C12.9365 20.4747 13.8454 19.5728 14.9563 19.5728H25.7722C26.883 19.5728 27.7919 20.4747 27.7919 21.5771C27.7919 22.6795 26.883 23.5815 25.7722 23.5815Z" fill="#004666"/>
<path d="M58.4523 39.5063H14.9465C13.8357 39.5063 12.9268 38.6044 12.9268 37.5019C12.9268 36.3995 13.8357 35.4976 14.9465 35.4976H58.4523C59.5632 35.4976 60.4721 36.3995 60.4721 37.5019C60.4721 38.6044 59.5632 39.5063 58.4523 39.5063Z" fill="#004666"/>
<path d="M58.4523 51.2519H14.9465C13.8357 51.2519 12.9268 50.35 12.9268 49.2475C12.9268 48.1451 13.8357 47.2432 14.9465 47.2432H58.4523C59.5632 47.2432 60.4721 48.1451 60.4721 49.2475C60.4721 50.35 59.5632 51.2519 58.4523 51.2519Z" fill="#004666"/>
<path d="M58.4523 62.9878H14.9465C13.8357 62.9878 12.9268 62.0858 12.9268 60.9834C12.9268 59.881 13.8357 58.979 14.9465 58.979H58.4523C59.5632 58.979 60.4721 59.881 60.4721 60.9834C60.4721 62.0858 59.5632 62.9878 58.4523 62.9878Z" fill="#004666"/>
<path d="M48.8379 0L70.7322 21.7275H53.2309C50.8072 21.7275 48.8379 19.7733 48.8379 17.368V0Z" fill="#00AEEF"/>
<path d="M70.0761 83.6029L72.1767 83.8234L94.7072 59.5803C95.1111 59.1394 95.101 58.4679 94.6769 58.047L86.7897 50.2199C86.3453 49.7789 85.6081 49.7889 85.184 50.2499L62.5121 74.6032L62.0273 77.0987L70.0761 83.6029Z" fill="#004666"/>
<path d="M58.9874 86.4692C58.735 87.3211 59.553 88.1128 60.4013 87.8322L72.1664 83.8334L69.6922 80.5362C69.5811 80.3959 69.4397 80.2757 69.2782 80.1955C67.5715 79.3737 66.7434 79.4138 65.0569 78.612C64.8549 78.5218 64.6933 78.3615 64.5822 78.1711L62.5018 74.6233L58.9874 86.4792V86.4692Z" fill="#00AEEF"/>
</g>
<defs>
<clipPath id="clip0_1634_34791">
<rect width="94" height="96" fill="white" transform="translate(1)"/>
</clipPath>
</defs>
</svg>
