<svg width="96" height="96" viewBox="0 0 96 96" fill="none" xmlns="http://www.w3.org/2000/svg">
<g clip-path="url(#clip0_1957_38740)">
<path d="M21.3262 88.9938V96H74.6729V88.9938C74.6729 82.7112 72.6165 80.0682 68.6541 77.6873L59.2346 73.6493H59.2146L56.6666 71.667C54.2591 73.7751 51.2597 75.0337 47.9995 75.0337C44.7393 75.0337 41.7199 73.7646 39.3124 71.646L36.7444 73.6493L27.345 77.6873C23.3726 80.0786 21.3262 82.7112 21.3262 88.9938Z" fill="#004666"/>
<path d="M72.9979 35.3037C68.6543 35.3037 65.1133 38.9327 65.1133 43.4112V48.9596C65.1133 54.1303 68.6543 58.3047 72.9979 58.3047C77.3415 58.3047 80.8826 54.1198 80.8826 48.9596V43.4112C80.8826 38.9327 77.3515 35.3037 72.9979 35.3037Z" fill="#004666"/>
<path d="M23.0018 35.3037C18.6583 35.3037 15.1172 38.9327 15.1172 43.4112V48.9596C15.1172 54.1303 18.6583 58.3047 23.0018 58.3047C27.3454 58.3047 30.8865 54.1198 30.8865 48.9596V43.4112C30.8865 38.9327 27.3554 35.3037 23.0018 35.3037Z" fill="#004666"/>
<path d="M81.9461 14.7047C73.269 5.62176 61.2414 0 48 0C34.7586 0 22.731 5.62176 14.0539 14.7047C5.3768 23.7666 0 36.3422 0 50.1868C0 54.3297 0.491536 58.3573 1.39436 62.2065C2.2069 61.4618 3.12978 60.7696 4.20314 60.1298L4.46395 59.9725L4.7348 59.8571L9.61003 57.7699C9.16865 55.3156 8.9279 52.7774 8.9279 50.1868C8.9279 38.8909 13.2915 28.7067 20.3737 21.3019C27.4558 13.8971 37.1962 9.33464 48 9.33464C58.8038 9.33464 68.5442 13.8971 75.6263 21.3019C82.7085 28.7067 87.0721 38.8909 87.0721 50.1868C87.0721 52.7774 86.8314 55.3156 86.39 57.7699L91.2652 59.8571L91.5461 59.9725L91.8069 60.1298C92.8702 60.7696 93.8031 61.4618 94.6056 62.2065C95.5085 58.3468 96 54.3297 96 50.1868C96 36.3422 90.6232 23.7666 81.9361 14.6942L81.9461 14.7047Z" fill="#00AEEF"/>
<path d="M48.0004 41.7124C42.5834 41.7124 38.1797 46.2329 38.1797 51.8127V58.7245C38.1797 65.1644 42.5834 70.3771 48.0004 70.3771C53.4173 70.3771 57.8311 65.1644 57.8311 58.7245V51.8127C57.8311 46.2329 53.4374 41.7124 48.0004 41.7124Z" fill="#004666"/>
<path d="M89.5701 64.1784L82.0065 60.9375H81.9864L80.6723 59.9202C78.5657 61.829 75.8974 62.9828 72.9883 62.9828C70.0792 62.9828 67.4008 61.829 65.2942 59.9097L63.9601 60.948L62.0341 61.7871C61.5425 64.7238 60.3588 67.3879 58.6836 69.538L67.3808 73.2718H94.4052C94.4052 68.2269 92.7501 66.1083 89.5701 64.1994V64.1784Z" fill="#004666"/>
<path d="M33.9659 61.7766L32.0198 60.9375H31.9997L30.6856 59.9202C28.5791 61.829 25.9107 62.9828 23.0016 62.9828C20.0925 62.9828 17.4142 61.829 15.3076 59.9097L13.9734 60.948L6.42984 64.1889C3.23987 66.1083 1.59473 68.2269 1.59473 73.2614H28.6192L37.216 69.5799L37.3063 69.5065C35.6411 67.3564 34.4574 64.7029 33.9759 61.7766H33.9659Z" fill="#004666"/>
</g>
<defs>
<clipPath id="clip0_1957_38740">
<rect width="96" height="96" fill="white"/>
</clipPath>
</defs>
</svg>
