<svg width="96" height="96" viewBox="0 0 96 96" fill="none" xmlns="http://www.w3.org/2000/svg">
<path d="M79 72.0979V4.89786C79 2.73296 77.2083 0.979492 74.9961 0.979492H21.0039C18.7917 0.979492 17 2.73296 17 4.89786V91.1019C17 93.2668 18.7917 95.0203 21.0039 95.0203H74.9961C77.2083 95.0203 79 93.2668 79 91.1019V74.8407" fill="#004666"/>
<path d="M69.7008 74.8507V76.8197H26.2988V10.0801H69.7008V74.8409" fill="white"/>
<path d="M54.1959 87.8793H41.7939C40.6929 87.8793 39.792 86.9977 39.792 85.9201C39.792 84.8426 40.6929 83.9609 41.7939 83.9609H54.1959C55.297 83.9609 56.1979 84.8426 56.1979 85.9201C56.1979 86.9977 55.297 87.8793 54.1959 87.8793Z" fill="#0099D8"/>
</svg>
