<svg width="96" height="96" viewBox="0 0 96 96" fill="none" xmlns="http://www.w3.org/2000/svg">
<g clip-path="url(#clip0_1634_33835)">
<path d="M73.7401 0.619854L44.8701 18.6199L51.8901 29.8899C52.2201 27.3499 53.6801 25.1099 55.9901 23.6499C59.4801 21.4399 63.8101 21.8299 66.7501 24.6299C69.2601 27.0099 70.2101 30.5399 69.1101 33.8999C68.4501 35.9199 67.0301 37.6499 65.1901 38.7299C62.8901 40.0899 60.3001 40.3799 57.9201 39.5599L65.0201 50.9499L75.0901 44.6699C75.5301 44.3999 76.0801 44.3399 76.5601 44.5099C77.0501 44.6899 77.4301 45.0799 77.6001 45.5699C77.7701 46.0699 77.9301 46.4099 78.1801 46.7899C79.5701 48.9199 82.2901 49.8799 84.6301 49.0799C86.7801 48.3499 88.2401 46.5899 88.5201 44.2599C88.6701 43.0199 88.3401 41.7599 87.6801 40.7099C87.4701 40.3799 87.2501 40.0999 86.9001 39.7599C86.5301 39.3899 86.3501 38.8799 86.4101 38.3599C86.4701 37.8399 86.7601 37.3799 87.2001 37.1099L93.8801 32.9399C95.7901 31.7499 96.3701 29.2399 95.1801 27.3299L79.3501 1.91985C78.1601 0.00985432 75.6501 -0.570146 73.7401 0.619854Z" fill="#00AEEF"/>
<path d="M38.2697 96.0002V82.7202C36.6497 84.7002 34.2197 85.8302 31.4897 85.8502H31.4197C27.3197 85.8502 23.8897 83.2402 22.8797 79.3302C22.0097 75.9802 23.0697 72.4902 25.7797 70.2102C27.4097 68.8402 29.5297 68.1302 31.6597 68.1802C34.3197 68.2402 36.6797 69.3702 38.2697 71.3202V57.9002H26.3997C25.8797 57.9002 25.3897 57.6602 25.0697 57.2502C24.7497 56.8402 24.6297 56.3102 24.7497 55.8002C24.8697 55.2802 24.9197 54.9002 24.9097 54.4602C24.8497 51.9202 23.0597 49.6602 20.6497 49.1002C18.4497 48.5902 16.2997 49.3002 14.8297 51.0902C14.0797 52.0002 13.6897 53.1602 13.6397 54.3402C13.6197 54.8402 13.6597 55.2402 13.7897 55.8102C13.9097 56.3202 13.7897 56.8502 13.4697 57.2602C13.1497 57.6702 12.6597 57.9102 12.1397 57.9102H0.179688V91.9402C0.179688 94.1902 1.99969 96.0102 4.24969 96.0102H38.2697V96.0002Z" fill="#00AEEF"/>
<path d="M52.4397 39.1601C53.6997 37.7501 54.1297 35.9201 53.6497 34.0701C53.0297 31.6901 50.9297 30.1001 48.3997 30.1001H48.3597C46.4697 30.1101 44.8397 30.9501 43.8797 32.4001C43.1097 33.5601 41.6897 34.0701 40.3597 33.6701C39.0597 33.2901 38.1397 32.0601 38.1397 30.6801V16.5601H4.24969C1.99969 16.5601 0.179688 18.3801 0.179688 20.6301V54.5201H10.2197C10.2497 51.7801 11.4897 49.2301 13.6397 47.5201C15.8197 45.7901 18.6397 45.1701 21.4097 45.8101C25.3497 46.7201 28.2697 50.4001 28.3097 54.5201H38.1497V40.3901C38.1497 39.0101 39.0397 37.8101 40.3597 37.4001C41.7097 37.0101 43.1197 37.5101 43.8797 38.6601C44.7797 40.0201 46.2597 40.8401 47.9897 40.9601C49.7197 41.0801 51.3297 40.4201 52.4497 39.1801L52.4397 39.1601Z" fill="#004666"/>
<path d="M75.5701 96C77.8201 96 79.6401 94.18 79.6401 91.93V58.04H69.6001C69.5701 60.78 68.3301 63.33 66.1801 65.04C64.0001 66.77 61.1701 67.39 58.4101 66.75C54.4701 65.84 51.5501 62.16 51.5101 58.04H41.6701V72.17C41.6701 73.55 40.7801 74.75 39.4601 75.16C38.1001 75.56 36.7001 75.05 35.9401 73.9C35.0301 72.53 33.5401 71.71 31.8101 71.6C30.0801 71.49 28.4701 72.15 27.3701 73.4C26.1201 74.81 25.6901 76.63 26.1701 78.48C26.7901 80.86 28.8901 82.45 31.4201 82.45H31.4601C33.3501 82.44 34.9801 81.6 35.9401 80.15C36.7101 78.99 38.1301 78.48 39.4601 78.88C40.7801 79.27 41.6801 80.47 41.6801 81.87V95.99H75.5701V96Z" fill="#80D7F7"/>
</g>
<defs>
<clipPath id="clip0_1634_33835">
<rect width="95.64" height="96" fill="white" transform="translate(0.179688)"/>
</clipPath>
</defs>
</svg>
