<svg width="97" height="97" viewBox="0 0 97 97" fill="none" xmlns="http://www.w3.org/2000/svg">
<g clip-path="url(#clip0_1957_6813)">
<path d="M79.4864 63.43C77.7364 63.27 76.0064 63 74.3464 62.64C73.8064 62.52 73.3364 62.19 73.0464 61.71C72.4964 60.8 71.9864 59.86 71.5064 58.93C69.7164 59.27 67.3364 59.74 65.7764 60.15C65.2464 60.32 64.6864 60.04 64.4964 59.51L63.8164 57.61C63.5964 57.03 63.9064 56.41 64.5164 56.22C66.0964 55.79 68.2964 55.34 70.0864 55C69.7064 53.57 69.3564 52.03 69.0564 50.47C66.2064 51.06 64.0164 51.57 62.5464 51.96C62.0064 52.11 61.4564 51.79 61.2864 51.26L60.6864 49.34C60.5064 48.77 60.8264 48.17 61.4064 48C63.3964 47.44 66.1664 46.84 68.3564 46.37C68.0964 44.58 67.8664 42.93 67.7364 41.67C63.5364 42.64 61.1564 43.28 59.8564 43.7C59.3164 43.87 58.7364 43.57 58.5464 43.05L57.8464 41.15C57.6364 40.59 57.9364 39.96 58.5064 39.78C60.4264 39.18 63.4164 38.42 67.3764 37.52C67.2064 35.88 66.7764 33.89 65.3864 32.59C65.3064 32.53 65.2564 32.48 65.1964 32.44C63.0864 30.69 59.7464 30.32 54.6664 31.2C50.7364 31.91 47.4464 30.13 44.8664 25.92C42.8364 22.59 42.0664 19.06 42.0664 19.02C42.0064 18.78 41.9764 18.49 41.9164 18.19C41.5264 15.97 40.9964 12.93 38.4364 11.5C36.8364 10.6 34.8864 10.62 32.6064 11.52C27.1364 13.66 19.1964 22.42 15.4064 26.64L14.3864 27.73C12.6964 29.57 11.9064 31.4 12.0164 33.31C12.1864 37.31 15.8364 40.68 23.1464 47.37C25.2564 49.29 27.5864 51.41 30.1964 53.89C34.2964 57.8 39.1864 62.54 43.9064 67.15C45.3364 68.54 52.4464 75.29 58.4564 80.99C59.3064 81.8 60.1264 82.59 60.9064 83.33C62.5964 84.93 64.8164 85.84 67.1364 85.89C68.3064 85.91 69.4064 85.93 70.4264 85.93C71.5764 85.97 72.5864 85.97 73.4864 85.97C80.5764 85.97 90.3164 84.41 94.4464 80.01C96.0064 78.34 96.7764 76.31 96.6264 74.13C96.0664 65.11 89.8064 64.47 79.4564 63.43H79.4864ZM91.0264 76.79C88.1464 79.87 79.9364 81.26 73.5064 81.26C71.9564 81.26 70.0164 81.23 67.7864 81.18C66.2664 81.15 64.7964 80.55 63.6864 79.5C57.0864 73.23 49.3464 65.86 47.1864 63.76L47.0364 63.63C42.3564 59.06 37.5064 54.36 33.4464 50.49C31.5064 48.65 29.7264 46.99 28.0864 45.51L26.3364 43.87C20.8064 38.83 16.8064 35.16 16.7064 33.08C16.7064 32.89 16.6464 32.22 17.8564 30.9L19.0064 29.64C23.3464 33.93 36.2064 46.56 42.5464 52.6C44.8164 54.76 50.1764 60.31 50.1764 60.31C53.9364 64.2 61.8364 72.7 65.4964 75.18H65.5164C66.8164 76.19 68.2264 76.91 69.8364 76.91C74.4064 76.91 78.2264 76.6801 81.4964 76.2001C86.1764 75.5001 89.6564 74.56 91.8564 73.4C91.9164 73.72 91.9364 74.06 91.9664 74.43C92.0264 75.31 91.7364 76.05 91.0264 76.8V76.79Z" fill="#004666"/>
<path d="M20.0965 57.1898H2.7365C1.5965 57.1898 0.666504 56.2598 0.666504 55.1198C0.666504 53.9798 1.5965 53.0498 2.7365 53.0498H20.0965C21.2465 53.0498 22.1665 53.9798 22.1665 55.1198C22.1665 56.2598 21.2365 57.1898 20.0965 57.1898Z" fill="#00AEEF"/>
<path d="M29.5665 67.62H12.2165C11.0665 67.62 10.1465 66.69 10.1465 65.55C10.1465 64.41 11.0765 63.48 12.2165 63.48H29.5765C30.7265 63.48 31.6465 64.41 31.6465 65.55C31.6465 66.69 30.7165 67.62 29.5765 67.62H29.5665Z" fill="#00AEEF"/>
<path d="M40.6663 78.0399H23.3063C22.1563 78.0399 21.2363 77.1099 21.2363 75.9699C21.2363 74.8299 22.1663 73.8999 23.3063 73.8999H40.6663C41.8163 73.8999 42.7363 74.8299 42.7363 75.9699C42.7363 77.1099 41.8063 78.0399 40.6663 78.0399Z" fill="#00AEEF"/>
</g>
<defs>
<clipPath id="clip0_1957_6813">
<rect width="96" height="96" fill="white" transform="translate(0.666504 0.399902)"/>
</clipPath>
</defs>
</svg>
